<svg width="312" height="100" viewBox="0 0 312 100" fill="none" xmlns="http://www.w3.org/2000/svg">
<path d="M46.7691 6.3566C35.323 4.65357 5.40845 9.35616 3.32359 23.2215C2.75321 27.0267 4.97572 29.3781 7.26678 29.7195C9.33265 30.024 10.0004 28.5424 10.0004 28.5424C8.68213 28.3465 7.98334 27.1484 8.24379 25.3918C10.1302 12.848 30.7877 8.09765 42.348 8.25574C33.7514 15.5687 21.3356 44.0953 16.9096 73.5349C16.0062 79.5436 16.4574 82.4049 18.8667 82.7644C19.7306 82.8958 20.4516 82.5588 20.6011 81.5788C21.2122 77.5273 53.1945 6.98393 72.3842 9.83997C85.0349 11.7228 67.9449 42.303 46.8029 39.1585C45.8255 39.011 45.3829 41.9752 46.3577 42.1162C50.9465 42.7963 55.3243 42.5443 59.3845 41.4677C81.8299 47.0611 56.3011 99.0576 20.2154 93.6936C-5.87922 89.8106 5.09106 67.1904 13.4483 68.4327C14.5564 68.6202 15.1622 66.1277 13.9622 65.95C0.882208 64.0081 -11.0118 93.3814 21.5782 98.2243C67.4735 105.046 86.7027 51.256 63.6703 39.9829C82.6373 32.4238 91.4506 9.3167 73.4656 6.64042C57.3443 4.24182 40.0676 32.35 29.0157 54.7535L28.1293 54.6234C30.353 48.0197 32.8658 41.0133 35.4941 34.678C42.0708 18.2679 48.2469 8.36416 48.2469 8.36416C48.4128 7.27034 47.9665 6.52773 46.7618 6.34797L46.7691 6.3566Z" fill="#A82682"/>
<path d="M105.471 28.1621C105.471 28.1621 105.439 26.2064 103.281 25.8827C89.3351 23.7995 74.2335 60.5331 92.0016 63.1876C101.331 64.5813 111.561 47.3696 113.998 32.1872C115.207 32.8414 116.503 33.3576 118.1 33.5977C120.969 34.0261 121.394 31.2038 121.394 31.2038C121.394 31.2038 120.354 31.6925 118.758 31.4524C116.996 31.19 115.511 30.2355 114.225 29.0602C114.141 24.6358 112.746 19.7547 110.607 19.4389C109.081 19.2129 107.292 20.8259 107.135 21.8766C106.896 23.4685 108.399 27.6175 111.639 30.4765L111.499 31.4089C109.205 46.7682 99.3621 61.3717 93.3043 60.4651C83.0264 58.9304 94.8728 26.5821 105.465 28.1647L105.471 28.1621ZM136.292 59.1655C135.651 63.468 135.917 65.5414 137.823 65.8274C138.457 65.9205 139.007 65.511 139.076 65.0471C139.314 63.4552 150.894 45.39 158.788 40.4751C159.617 39.9394 160.397 40.0515 160.139 40.7627C158.582 44.3519 155.942 51.6796 154.428 61.8085C153.086 70.789 154.388 77.7252 158.592 78.352C160.982 78.7101 163.167 75.5572 163.167 75.5572C163.167 75.5572 163.601 74.8068 162.803 74.6868C162.005 74.5667 161.219 75.993 159.622 75.7529C158.03 75.5148 157.4 73.2295 158.342 66.9392C160.296 53.8901 166.489 40.7262 166.489 40.7262C166.848 38.336 165.694 36.8556 163.22 36.4886C157.126 35.5773 147.635 47.8429 141.874 56.4161L141.246 56.3203C144.539 45.7425 149.946 35.1618 149.946 35.1618C150.278 32.9197 149.225 31.2194 146.687 30.8357C139.12 29.7044 129.409 43.8879 123.385 54.2235L122.669 54.1169C126.084 42.1657 131.479 31.1797 131.479 31.1797C131.635 30.1336 131.166 29.4156 130.218 29.2746C125.438 28.5582 119.618 43.9678 117.345 59.177C116.703 63.4796 116.97 65.5529 118.875 65.8389C119.523 65.938 120.059 65.5225 120.13 65.0427C120.389 63.3008 133.426 39.9359 142.149 34.4853C143.121 33.8853 143.988 34.1008 143.624 34.942C142.148 38.4725 137.892 48.4094 136.287 59.1523L136.292 59.1655Z" fill="#A82682"/>
<path d="M259.525 47.8872C258.848 52.4114 259.24 54.6645 260.68 54.8833C261.307 54.9743 261.928 54.6641 262.039 53.9378C264.374 38.2981 274.134 21.2365 274.134 21.2365C274.314 20.0487 273.886 19.1706 272.613 18.9807C267.371 18.1934 261.748 33.0232 259.532 47.8846L259.525 47.8872ZM279.467 2.90507C275.333 2.28549 273.009 11.4277 275.785 11.842C275.785 11.842 280.474 7.02216 280.787 4.95892C280.962 3.76921 280.577 3.06813 279.472 2.90706L279.467 2.90507ZM300.441 58.56C303.086 40.8236 311.709 28.1141 311.709 28.1141C311.876 27.0079 311.416 26.2145 310.478 26.0711C308.329 25.7479 306.157 27.8532 304.072 30.9341C300.906 35.3917 285.887 55.7342 281.589 55.0878C276.034 54.2527 288.262 21.2053 298.912 22.802C301.442 23.1805 301.899 26.0021 301.899 26.0021C301.899 26.0021 302.018 26.9153 303.356 27.1173C304.448 27.2836 304.897 25.9666 304.897 25.9666C304.897 25.9666 304.29 21.4169 299.775 20.742C282.316 18.1283 266.562 55.7451 280.366 57.816C284.336 58.4133 292.015 50.4289 298.087 42.9124L298.882 43.0323C297.8 46.4324 296.929 50.1036 296.432 53.44C295.153 62.0131 296.327 69.3447 300.989 70.045C304.164 70.5225 306.965 64.7615 306.965 64.7615C306.965 64.7615 307.344 63.9217 306.55 63.8019C305.673 63.6686 305.294 64.5084 305.294 64.5084C305.294 64.5084 303.85 67.7356 301.617 67.4035C300.032 67.1658 299.479 64.9575 300.435 58.5626L300.441 58.56Z" fill="#A82682"/>
<path d="M194.148 92.07C168.09 88.1475 179.679 65.7321 188.076 66.9914C189.166 67.1779 189.88 64.7119 188.673 64.5295C175.567 62.5543 162.641 91.6375 195.273 96.5511C246.615 104.28 277.698 9.92378 222.646 1.63623C186.757 -3.76541 172.144 26.9584 182.726 28.5544C184.796 28.8635 185.781 26.7881 185.781 26.7881C182.181 26.2667 191.345 -0.20126 222.113 4.43252C271.041 11.7971 234.221 98.1033 194.144 92.068L194.148 92.07ZM192.327 72.1996C191.438 78.1857 191.898 81.0386 194.287 81.398C195.152 81.5313 195.874 81.1973 196.021 80.2211C197.252 71.9421 202.947 53.766 209.504 36.7119C215.72 20.3969 222.135 11.0201 222.135 11.0201C222.314 9.81695 221.735 9.17274 220.64 9.01132C212.445 7.7793 197.457 37.5911 192.32 72.2022L192.327 72.1996Z" fill="#A82682"/>
<path d="M46.7691 6.3566L46.7323 6.60373C46.835 6.619 46.9364 6.56922 46.9871 6.47867C47.0378 6.38812 47.0272 6.27565 46.9606 6.19611L46.7691 6.3566ZM3.32359 23.2215L3.07653 23.1844L3.07651 23.1845L3.32359 23.2215ZM7.26678 29.7195L7.22996 29.9666L7.23035 29.9666L7.26678 29.7195ZM10.0004 28.5424L10.2281 28.645C10.2603 28.5736 10.2572 28.4913 10.2196 28.4226C10.1821 28.3539 10.1145 28.3068 10.0371 28.2952L10.0004 28.5424ZM8.24379 25.3918L7.99673 25.3547L7.99665 25.3552L8.24379 25.3918ZM42.348 8.25574L42.5099 8.44605C42.5891 8.37859 42.6183 8.26905 42.583 8.17111C42.5478 8.07316 42.4555 8.00735 42.3514 8.00593L42.348 8.25574ZM16.9096 73.5349L17.1566 73.572L17.1566 73.572L16.9096 73.5349ZM18.8667 82.7644L18.9043 82.5174L18.9036 82.5173L18.8667 82.7644ZM20.6011 81.5788L20.8481 81.6165L20.8482 81.6161L20.6011 81.5788ZM72.3842 9.83997L72.3475 10.0871L72.3475 10.0871L72.3842 9.83997ZM46.8029 39.1585L46.7657 39.4055L46.7662 39.4056L46.8029 39.1585ZM46.3577 42.1162L46.3943 41.869L46.3935 41.8689L46.3577 42.1162ZM59.3845 41.4677L59.4449 41.2252C59.404 41.2151 59.3612 41.2154 59.3204 41.2262L59.3845 41.4677ZM20.2154 93.6936L20.1786 93.9407L20.1786 93.9407L20.2154 93.6936ZM13.4483 68.4327L13.4899 68.1863L13.485 68.1855L13.4483 68.4327ZM13.9622 65.95L13.9255 66.1971L13.9256 66.1971L13.9622 65.95ZM21.5782 98.2243L21.615 97.9772L21.615 97.9772L21.5782 98.2243ZM63.6703 39.9829L63.5778 39.7508C63.486 39.7874 63.4244 39.8746 63.4207 39.9734C63.4169 40.0721 63.4717 40.1638 63.5605 40.2073L63.6703 39.9829ZM73.4656 6.64042L73.5023 6.3933L73.5023 6.3933L73.4656 6.64042ZM29.0157 54.7535L28.9794 55.0007C29.0866 55.0164 29.1918 54.9612 29.2397 54.864L29.0157 54.7535ZM28.1293 54.6234L27.8926 54.5436C27.8689 54.6138 27.8776 54.6908 27.9164 54.754C27.9551 54.8171 28.0198 54.8598 28.093 54.8705L28.1293 54.6234ZM35.4941 34.678L35.7249 34.7738L35.726 34.771L35.4941 34.678ZM48.2469 8.36416L48.4589 8.49636C48.4769 8.46749 48.4888 8.43525 48.4939 8.4016L48.2469 8.36416ZM46.7618 6.34797L46.7987 6.10087C46.6961 6.08555 46.5946 6.1353 46.5439 6.22586C46.4931 6.31642 46.5037 6.42892 46.5704 6.50847L46.7618 6.34797ZM105.471 28.1621L105.563 28.3943C105.66 28.356 105.723 28.2619 105.721 28.1579L105.471 28.1621ZM103.281 25.8827L103.318 25.6356L103.318 25.6356L103.281 25.8827ZM92.0016 63.1876L91.9647 63.4347L91.9647 63.4347L92.0016 63.1876ZM113.998 32.1872L114.117 31.9675C114.046 31.929 113.96 31.9273 113.888 31.9631C113.815 31.9989 113.764 32.0677 113.752 32.1476L113.998 32.1872ZM118.1 33.5977L118.063 33.8448L118.063 33.8448L118.1 33.5977ZM121.394 31.2038L121.641 31.2409C121.655 31.1498 121.617 31.0585 121.543 31.0034C121.469 30.9484 121.371 30.9385 121.287 30.9777L121.394 31.2038ZM118.758 31.4524L118.795 31.2054L118.795 31.2053L118.758 31.4524ZM114.225 29.0602L113.976 29.065C113.977 29.1334 114.006 29.1984 114.057 29.2446L114.225 29.0602ZM110.607 19.4389L110.57 19.686L110.57 19.6861L110.607 19.4389ZM107.135 21.8766L106.887 21.8395L106.887 21.8396L107.135 21.8766ZM111.639 30.4765L111.886 30.5135C111.899 30.4297 111.868 30.3453 111.804 30.2892L111.639 30.4765ZM111.499 31.4089L111.252 31.3719L111.252 31.372L111.499 31.4089ZM93.3043 60.4651L93.3413 60.218L93.3412 60.218L93.3043 60.4651ZM105.465 28.1647L105.428 28.4118C105.471 28.4183 105.516 28.4132 105.557 28.397L105.465 28.1647ZM136.292 59.1655L136.54 59.2024C136.546 59.1587 136.541 59.1142 136.525 59.0732L136.292 59.1655ZM137.823 65.8274L137.786 66.0745L137.787 66.0746L137.823 65.8274ZM139.076 65.0471L138.829 65.0101L138.829 65.0104L139.076 65.0471ZM158.788 40.4751L158.92 40.6872L158.924 40.6849L158.788 40.4751ZM160.139 40.7627L160.368 40.8621C160.37 40.8575 160.372 40.8527 160.374 40.8479L160.139 40.7627ZM154.428 61.8085L154.18 61.7716L154.18 61.7716L154.428 61.8085ZM158.592 78.352L158.629 78.1049L158.629 78.1048L158.592 78.352ZM163.167 75.5572L163.373 75.6996C163.377 75.694 163.38 75.6882 163.384 75.6823L163.167 75.5572ZM159.622 75.7529L159.659 75.5059L159.659 75.5058L159.622 75.7529ZM158.342 66.9392L158.095 66.9022L158.095 66.9022L158.342 66.9392ZM166.489 40.7262L166.715 40.8325C166.726 40.8106 166.733 40.7872 166.736 40.7632L166.489 40.7262ZM163.22 36.4886L163.183 36.7357L163.183 36.7358L163.22 36.4886ZM141.874 56.4161L141.836 56.6631C141.932 56.6776 142.027 56.6357 142.081 56.5554L141.874 56.4161ZM141.246 56.3203L141.007 56.2461C140.986 56.3156 140.995 56.3911 141.034 56.4528C141.073 56.5145 141.136 56.5563 141.208 56.5673L141.246 56.3203ZM149.946 35.1618L150.168 35.2755C150.18 35.2513 150.189 35.2253 150.193 35.1985L149.946 35.1618ZM146.687 30.8357L146.725 30.5887L146.724 30.5886L146.687 30.8357ZM123.385 54.2235L123.348 54.4706C123.449 54.4857 123.549 54.4376 123.601 54.3493L123.385 54.2235ZM122.669 54.1169L122.428 54.0483C122.409 54.1174 122.42 54.1918 122.459 54.2522C122.497 54.3127 122.561 54.3534 122.632 54.364L122.669 54.1169ZM131.479 31.1797L131.703 31.2898C131.714 31.2667 131.722 31.242 131.726 31.2165L131.479 31.1797ZM130.218 29.2746L130.181 29.5217L130.181 29.5217L130.218 29.2746ZM117.345 59.177L117.098 59.1401L117.098 59.1401L117.345 59.177ZM118.875 65.8389L118.913 65.5919L118.912 65.5918L118.875 65.8389ZM120.13 65.0427L119.882 65.006L119.882 65.0065L120.13 65.0427ZM142.149 34.4853L142.017 34.2727L142.016 34.2735L142.149 34.4853ZM143.624 34.942L143.395 34.8428L143.394 34.8456L143.624 34.942ZM136.287 59.1523L136.04 59.1153C136.034 59.159 136.039 59.2036 136.055 59.2446L136.287 59.1523ZM259.525 47.8872L259.433 47.655L259.299 47.7081L259.278 47.8502L259.525 47.8872ZM260.68 54.8833L260.643 55.1303L260.645 55.1306L260.68 54.8833ZM262.039 53.9378L262.286 53.9758L262.287 53.9747L262.039 53.9378ZM274.134 21.2365L274.351 21.3605L274.374 21.32L274.381 21.2739L274.134 21.2365ZM272.613 18.9807L272.576 19.2277L272.576 19.2278L272.613 18.9807ZM259.532 47.8846L259.624 48.1168L259.758 48.0637L259.779 47.9215L259.532 47.8846ZM279.467 2.90507L279.566 2.67572L279.537 2.66281L279.504 2.65799L279.467 2.90507ZM275.785 11.842L275.749 12.0891L275.875 12.108L275.965 12.0162L275.785 11.842ZM280.787 4.95892L281.034 4.99636L281.034 4.99538L280.787 4.95892ZM279.472 2.90706L279.373 3.13641L279.403 3.14952L279.436 3.15429L279.472 2.90706ZM300.441 58.56L300.533 58.7923L300.667 58.7393L300.688 58.5969L300.441 58.56ZM311.709 28.1141L311.916 28.2544L311.947 28.2074L311.956 28.1513L311.709 28.1141ZM310.478 26.0711L310.516 25.8241L310.515 25.824L310.478 26.0711ZM304.072 30.9341L304.276 31.0789L304.279 31.0742L304.072 30.9341ZM281.589 55.0878L281.626 54.8407L281.626 54.8407L281.589 55.0878ZM298.912 22.802L298.875 23.0491L298.875 23.0491L298.912 22.802ZM301.899 26.0021L302.147 25.9698L302.146 25.9621L301.899 26.0021ZM303.356 27.1173L303.394 26.8703L303.394 26.8703L303.356 27.1173ZM304.897 25.9666L305.133 26.0472L305.152 25.9917L305.145 25.9336L304.897 25.9666ZM299.775 20.742L299.738 20.9891L299.738 20.9891L299.775 20.742ZM280.366 57.816L280.404 57.5689L280.404 57.5689L280.366 57.816ZM298.087 42.9124L298.124 42.6654L297.983 42.644L297.893 42.7554L298.087 42.9124ZM298.882 43.0323L299.12 43.108L299.209 42.8289L298.919 42.7852L298.882 43.0323ZM296.432 53.44L296.679 53.4769L296.679 53.4768L296.432 53.44ZM300.989 70.045L301.026 69.7979L301.026 69.7979L300.989 70.045ZM306.965 64.7615L307.19 64.8708L307.193 64.8644L306.965 64.7615ZM306.55 63.8019L306.512 64.0489L306.512 64.0489L306.55 63.8019ZM305.294 64.5084L305.066 64.4055L305.066 64.4063L305.294 64.5084ZM301.617 67.4035L301.58 67.6506L301.581 67.6506L301.617 67.4035ZM300.435 58.5626L300.343 58.3303L300.209 58.3833L300.188 58.5257L300.435 58.5626ZM194.148 92.07L194.111 92.3171C194.235 92.3358 194.354 92.2595 194.388 92.1389C194.423 92.0183 194.363 91.8908 194.248 91.8408L194.148 92.07ZM188.076 66.9914L188.118 66.7451L188.113 66.7444L188.076 66.9914ZM188.673 64.5295L188.71 64.2824L188.71 64.2824L188.673 64.5295ZM195.273 96.5511L195.236 96.7981L195.236 96.7981L195.273 96.5511ZM222.646 1.63623L222.683 1.38917L222.683 1.38917L222.646 1.63623ZM182.726 28.5544L182.689 28.8014L182.689 28.8015L182.726 28.5544ZM185.781 26.7881L186.007 26.8952C186.041 26.8235 186.039 26.74 186.001 26.6701C185.964 26.6001 185.895 26.5522 185.817 26.5408L185.781 26.7881ZM222.113 4.43252L222.076 4.67958L222.076 4.67958L222.113 4.43252ZM194.144 92.068L194.181 91.821C194.057 91.8023 193.938 91.8785 193.903 91.9991C193.869 92.1197 193.929 92.2473 194.044 92.2972L194.144 92.068ZM192.327 72.1996L192.574 72.2363C192.587 72.148 192.552 72.0594 192.482 72.0039C192.412 71.9484 192.318 71.9344 192.235 71.9672L192.327 72.1996ZM194.287 81.398L194.325 81.1511L194.324 81.1509L194.287 81.398ZM196.021 80.2211L196.268 80.2583L196.268 80.2578L196.021 80.2211ZM209.504 36.7119L209.737 36.8016L209.738 36.8009L209.504 36.7119ZM222.135 11.0201L222.341 11.1612C222.363 11.13 222.377 11.0943 222.382 11.0569L222.135 11.0201ZM220.64 9.01132L220.603 9.25838L220.604 9.25849L220.64 9.01132ZM192.32 72.2022L192.073 72.1655C192.06 72.2538 192.095 72.3424 192.165 72.3979C192.235 72.4534 192.329 72.4674 192.412 72.4346L192.32 72.2022ZM46.8058 6.10948C41.0391 5.25146 30.6617 6.00755 21.4654 8.71122C16.8652 10.0636 12.5435 11.9082 9.23571 14.2948C5.92822 16.6812 3.61136 19.6275 3.07653 23.1844L3.57066 23.2587C4.07826 19.8829 6.28254 17.0418 9.52808 14.7C12.7733 12.3585 17.0365 10.5341 21.6064 9.19061C30.7501 6.5024 41.053 5.75871 46.7323 6.60373L46.8058 6.10948ZM3.07651 23.1845C2.48768 27.1127 4.78924 29.6029 7.22996 29.9666L7.30361 29.4723C5.1622 29.1532 3.01874 26.9407 3.57068 23.2586L3.07651 23.1845ZM7.23035 29.9666C8.33345 30.1293 9.08515 29.8148 9.56214 29.442C9.79754 29.258 9.96174 29.0632 10.0677 28.9134C10.1208 28.8383 10.1596 28.7741 10.1858 28.7273C10.1988 28.7038 10.2088 28.6847 10.2158 28.6708C10.2193 28.6638 10.222 28.6581 10.2241 28.6538C10.2251 28.6516 10.226 28.6498 10.2266 28.6483C10.227 28.6476 10.2273 28.6469 10.2275 28.6464C10.2276 28.6461 10.2278 28.6459 10.2279 28.6456C10.2279 28.6455 10.228 28.6454 10.228 28.6453C10.2281 28.6452 10.2281 28.645 10.0004 28.5424C9.77258 28.4397 9.77264 28.4396 9.7727 28.4395C9.77271 28.4394 9.77277 28.4393 9.7728 28.4392C9.77286 28.4391 9.77292 28.439 9.77296 28.4389C9.77305 28.4387 9.7731 28.4386 9.7731 28.4386C9.77312 28.4385 9.77298 28.4388 9.77268 28.4395C9.77208 28.4407 9.77084 28.4433 9.76894 28.4471C9.76514 28.4547 9.75872 28.4671 9.7495 28.4836C9.73105 28.5167 9.70157 28.5658 9.65977 28.6249C9.57601 28.7433 9.44417 28.9 9.25441 29.0483C8.88107 29.3401 8.26598 29.6142 7.30322 29.4723L7.23035 29.9666ZM10.0371 28.2952C9.45181 28.2083 9.01549 27.904 8.74763 27.4295C8.47571 26.948 8.36622 26.2696 8.49093 25.4285L7.99665 25.3552C7.86091 26.2707 7.97058 27.0696 8.31251 27.6752C8.65848 28.288 9.23068 28.6806 9.96364 28.7895L10.0371 28.2952ZM8.49086 25.429C9.41327 19.2952 14.9361 15.0202 21.7609 12.2926C28.5717 9.57052 36.5929 8.42691 42.3446 8.50556L42.3514 8.00593C36.5428 7.92649 28.4551 9.07902 21.5755 11.8286C14.7098 14.5726 8.96067 18.9447 7.99673 25.3547L8.49086 25.429ZM42.1861 8.06544C40.0052 9.92073 37.6004 13.1032 35.1535 17.2744C32.7039 21.45 30.2025 26.6329 27.8331 32.5043C23.0946 44.2469 18.8786 58.7573 16.6625 73.4977L17.1566 73.572C19.3665 58.8729 23.5715 44.4002 28.2965 32.6913C30.659 26.837 33.15 21.6771 35.5845 17.5272C38.0215 13.3729 40.3925 10.2472 42.5099 8.44605L42.1861 8.06544ZM16.6625 73.4977C16.2104 76.5045 16.0906 78.7595 16.4009 80.3169C16.5567 81.099 16.8245 81.7248 17.2308 82.1816C17.6412 82.6432 18.1768 82.9141 18.8298 83.0115L18.9036 82.5173C18.352 82.435 17.9277 82.2134 17.6042 81.8496C17.2764 81.4811 17.0362 80.9485 16.8909 80.2193C16.599 78.7539 16.7053 76.5739 17.1566 73.572L16.6625 73.4977ZM18.8291 83.0114C19.2992 83.0829 19.7608 83.0318 20.1335 82.8007C20.5132 82.5652 20.7644 82.1653 20.8481 81.6165L20.3541 81.5411C20.2884 81.9723 20.1042 82.2309 19.8701 82.3761C19.6289 82.5256 19.298 82.5773 18.9043 82.5174L18.8291 83.0114ZM20.8482 81.6161C20.8819 81.3925 21.0328 80.9037 21.3069 80.1606C21.5777 79.4268 21.9605 78.4663 22.4449 77.3127C23.4136 75.0058 24.7864 71.9325 26.4772 68.3658C29.8589 61.2323 34.5102 52.1307 39.741 43.2458C44.9731 34.3587 50.7788 25.699 56.4682 19.4426C59.3132 16.3141 62.121 13.7957 64.8053 12.1493C67.4913 10.5019 70.0295 9.7421 72.3475 10.0871L72.421 9.59285C69.9416 9.22382 67.2825 10.0438 64.5441 11.7234C61.804 13.404 58.96 15.9598 56.0986 19.1064C50.3751 25.4003 44.549 34.0942 39.3104 42.9923C34.0705 51.8928 29.4123 61.0081 26.0257 68.1518C24.3324 71.7237 22.9564 74.8039 21.9842 77.1192C21.4982 78.2767 21.1124 79.2444 20.8382 79.9876C20.5673 80.7216 20.3967 81.2587 20.3541 81.5416L20.8482 81.6161ZM72.3475 10.0871C73.8722 10.314 74.9226 10.9671 75.5792 11.9119C76.24 12.8626 76.5227 14.1389 76.4477 15.6451C76.2975 18.662 74.7143 22.5169 72.0624 26.2395C66.7561 33.688 57.2795 40.4641 46.8397 38.9114L46.7662 39.4056C57.4683 40.9974 67.1077 34.0556 72.4693 26.5294C75.1513 22.7647 76.79 18.818 76.9468 15.6699C77.0253 14.0935 76.7329 12.6964 75.9895 11.6267C75.2419 10.551 74.0589 9.83661 72.421 9.59285L72.3475 10.0871ZM46.8402 38.9114C46.447 38.8521 46.155 39.1164 45.9727 39.4052C45.7849 39.7026 45.66 40.0998 45.6011 40.4921C45.5423 40.8844 45.5454 41.3005 45.6375 41.6394C45.7269 41.9682 45.9284 42.3065 46.322 42.3634L46.3935 41.8689C46.2996 41.8553 46.1909 41.7703 46.1197 41.5083C46.0512 41.2563 46.0431 40.9141 46.0953 40.5662C46.1475 40.2183 46.2555 39.8932 46.3952 39.6719C46.5403 39.4421 46.6702 39.3911 46.7657 39.4055L46.8402 38.9114ZM46.3211 42.3633C50.9419 43.0482 55.3541 42.7948 59.4485 41.7092L59.3204 41.2262C55.2945 42.2937 50.951 42.5444 46.3943 41.869L46.3211 42.3633ZM59.324 41.7101C62.0768 42.3961 64.0798 43.7884 65.422 45.6822C66.7665 47.5794 67.46 49.9976 67.5584 52.751C67.7552 58.2628 65.5643 65.0701 61.5369 71.5579C53.4796 84.5375 38.16 96.1084 20.2521 93.4465L20.1786 93.9407C38.3565 96.6428 53.8442 84.8975 61.9614 71.8215C66.0212 65.2815 68.2593 58.3762 68.0577 52.7331C67.9568 49.9091 67.2442 47.3893 65.8296 45.3932C64.4126 43.3938 62.3035 41.9376 59.4449 41.2252L59.324 41.7101ZM20.2521 93.4465C13.7632 92.4809 9.61532 90.3558 7.15541 87.7618C4.69952 85.1722 3.90412 82.0925 4.16128 79.163C4.41898 76.2274 5.73437 73.445 7.49654 71.4762C9.26516 69.5001 11.4404 68.3868 13.4115 68.6798L13.485 68.1855C11.2775 67.8574 8.94752 69.1058 7.12421 71.1429C5.29444 73.1873 3.9312 76.0698 3.66351 79.1193C3.39527 82.175 4.22771 85.4008 6.79284 88.1057C9.35394 90.8063 13.6203 92.9648 20.1786 93.9407L20.2521 93.4465ZM13.4066 68.679C13.791 68.744 14.1161 68.57 14.3484 68.3183C14.5783 68.0692 14.7372 67.7269 14.8145 67.3832C14.8916 67.0406 14.8945 66.6665 14.7783 66.3525C14.6577 66.0267 14.4043 65.7629 13.9988 65.7028L13.9256 66.1971C14.1201 66.2259 14.241 66.3403 14.3097 66.526C14.3828 66.7235 14.3899 66.9941 14.327 67.2734C14.2644 67.5516 14.1391 67.8084 13.9812 67.9794C13.8258 68.1478 13.6596 68.215 13.4899 68.1863L13.4066 68.679ZM13.9989 65.7028C10.6269 65.2022 7.35465 66.7229 4.87057 69.3199C2.38574 71.9176 0.666209 75.6133 0.394721 79.5256C0.122852 83.4433 1.30362 87.579 4.61958 91.0382C7.93253 94.4942 13.3575 97.2553 21.5415 98.4714L21.615 97.9772C13.504 96.7719 8.19443 94.0453 4.9803 90.6924C1.7692 87.3426 0.630329 83.3484 0.893207 79.5602C1.15647 75.7665 2.82605 72.1802 5.23166 69.6653C7.63802 67.1496 10.7575 65.7268 13.9255 66.1971L13.9989 65.7028ZM21.5415 98.4714C44.6058 101.9 60.9826 90.0926 68.6913 76.0091C72.5438 68.9706 74.2382 61.3521 73.5126 54.7709C72.7864 48.1853 69.6324 42.6228 63.7802 39.7585L63.5605 40.2073C69.2245 42.9795 72.3039 48.3682 73.0159 54.8256C73.7284 61.2874 72.0656 68.8037 68.253 75.7692C60.6314 89.6935 44.446 101.371 21.615 97.9772L21.5415 98.4714ZM63.7628 40.215C73.3075 36.411 80.3106 28.6925 82.6623 21.5588C83.8384 17.9908 83.8593 14.5399 82.4106 11.7995C80.9575 9.05068 78.0549 7.07075 73.5023 6.3933L73.4288 6.88754C77.8687 7.54823 80.6089 9.4603 81.9689 12.033C83.3333 14.6141 83.3376 17.9142 82.1877 21.4024C79.8872 28.3811 73.0001 35.9956 63.5778 39.7508L63.7628 40.215ZM73.5023 6.3933C69.3911 5.7816 65.2269 7.11854 61.1368 9.78642C57.0471 12.4541 53.0119 16.4646 49.1455 21.2389C41.4122 30.7881 34.3204 43.4356 28.7916 54.643L29.2397 54.864C34.7629 43.6679 41.8354 31.0595 49.5338 21.5534C53.3832 16.8001 57.3806 12.8331 61.4098 10.2049C65.4386 7.57704 69.4794 6.29994 73.4288 6.88754L73.5023 6.3933ZM29.052 54.5063L28.1656 54.3762L28.093 54.8705L28.9794 55.0007L29.052 54.5063ZM28.3661 54.7031C30.5889 48.1021 33.0996 41.1017 35.7248 34.7738L35.2633 34.5823C32.632 40.925 30.1171 47.9373 27.8926 54.5436L28.3661 54.7031ZM35.726 34.771C39.0108 26.5748 42.1954 20.0039 44.5582 15.483C45.7396 13.2226 46.7155 11.4748 47.3957 10.2926C47.7358 9.70155 48.002 9.2519 48.1829 8.95031C48.2734 8.79951 48.3426 8.68573 48.3891 8.6098C48.4123 8.57183 48.4299 8.54332 48.4416 8.52438C48.4474 8.51491 48.4518 8.50783 48.4547 8.50316C48.4561 8.50082 48.4572 8.49909 48.4579 8.49795C48.4583 8.49738 48.4585 8.49697 48.4587 8.4967C48.4588 8.49657 48.4588 8.49649 48.4589 8.49642C48.4589 8.49637 48.4589 8.49636 48.2469 8.36416C48.0349 8.23195 48.0349 8.23202 48.0348 8.23212C48.0348 8.2322 48.0347 8.23234 48.0346 8.23251C48.0344 8.23285 48.0341 8.23334 48.0337 8.23398C48.0329 8.23526 48.0317 8.23715 48.0302 8.23963C48.0271 8.2446 48.0225 8.25198 48.0165 8.26175C48.0044 8.28129 47.9865 8.3104 47.9629 8.34898C47.9156 8.42613 47.8457 8.54115 47.7545 8.69321C47.572 8.99733 47.3043 9.44961 46.9626 10.0434C46.2793 11.231 45.3001 12.9848 44.1153 15.2516C41.7459 19.7851 38.5541 26.3712 35.2622 34.5851L35.726 34.771ZM48.4939 8.4016C48.5826 7.81682 48.5138 7.28536 48.223 6.87001C47.9304 6.45205 47.4452 6.19734 46.7987 6.10087L46.725 6.59508C47.2831 6.67836 47.6234 6.88484 47.8136 7.15658C48.0057 7.43093 48.0771 7.81768 47.9999 8.32671L48.4939 8.4016ZM46.5704 6.50847L46.5776 6.5171L46.9606 6.19611L46.9533 6.18748L46.5704 6.50847ZM105.471 28.1621C105.721 28.1579 105.721 28.1578 105.721 28.1577C105.721 28.1576 105.721 28.1574 105.721 28.1573C105.721 28.1571 105.721 28.1568 105.721 28.1565C105.721 28.1559 105.721 28.1552 105.721 28.1544C105.721 28.1527 105.721 28.1505 105.721 28.1479C105.721 28.1427 105.72 28.1356 105.72 28.1268C105.719 28.1092 105.717 28.0846 105.714 28.054C105.709 27.9927 105.698 27.9069 105.678 27.8036C105.637 27.5978 105.559 27.3189 105.406 27.0277C105.096 26.4356 104.484 25.8105 103.318 25.6356L103.244 26.1297C104.236 26.2785 104.719 26.7932 104.964 27.2599C105.089 27.498 105.154 27.7283 105.187 27.8993C105.204 27.9844 105.212 28.0539 105.217 28.1009C105.219 28.1243 105.22 28.1421 105.221 28.1533C105.221 28.1589 105.221 28.1628 105.221 28.165C105.221 28.1661 105.221 28.1668 105.221 28.167C105.221 28.1671 105.221 28.1671 105.221 28.1669C105.221 28.1669 105.221 28.1668 105.221 28.1667C105.221 28.1666 105.221 28.1665 105.221 28.1665C105.221 28.1663 105.221 28.1662 105.471 28.1621ZM103.318 25.6356C99.7137 25.0972 96.079 27.0699 92.9572 30.2854C89.8289 33.5076 87.1719 38.0195 85.5132 42.6747C83.8558 47.3262 83.1838 52.1532 84.0634 56.0016C84.5039 57.9292 85.3359 59.6195 86.6366 60.9142C87.939 62.2104 89.6972 63.096 91.9647 63.4347L92.0385 62.9405C89.864 62.6157 88.2074 61.7726 86.9891 60.56C85.7693 59.3459 84.9749 57.7472 84.5505 55.8902C83.7001 52.1696 84.3437 47.4457 85.9839 42.8424C87.6228 38.2428 90.2454 33.7959 93.3157 30.6335C96.3925 27.4643 99.8751 25.6265 103.244 26.1298L103.318 25.6356ZM91.9647 63.4347C94.3827 63.7959 96.8361 62.9478 99.1774 61.2699C101.519 59.5919 103.768 57.071 105.792 54.0423C109.841 47.9848 113.021 39.8522 114.245 32.2268L113.752 32.1476C112.539 39.7046 109.385 47.769 105.377 53.7646C103.373 56.7624 101.163 59.232 98.8863 60.8637C96.6094 62.4955 94.2854 63.2762 92.0385 62.9405L91.9647 63.4347ZM113.879 32.407C115.107 33.0714 116.431 33.5994 118.063 33.8448L118.137 33.3507C116.575 33.1158 115.307 32.6113 114.117 31.9675L113.879 32.407ZM118.063 33.8448C118.823 33.9583 119.437 33.8583 119.93 33.6313C120.421 33.405 120.774 33.0598 121.026 32.7064C121.277 32.354 121.43 31.9899 121.52 31.716C121.565 31.5784 121.595 31.4621 121.614 31.3792C121.623 31.3377 121.63 31.3044 121.634 31.2809C121.636 31.2691 121.638 31.2598 121.639 31.2531C121.639 31.2497 121.64 31.247 121.64 31.245C121.64 31.244 121.641 31.2431 121.641 31.2424C121.641 31.2421 121.641 31.2418 121.641 31.2416C121.641 31.2414 121.641 31.2413 121.641 31.2412C121.641 31.2411 121.641 31.2409 121.394 31.2038C121.147 31.1666 121.147 31.1665 121.147 31.1664C121.147 31.1664 121.147 31.1663 121.147 31.1663C121.147 31.1662 121.147 31.1661 121.147 31.1661C121.147 31.1662 121.147 31.1663 121.147 31.1667C121.147 31.1674 121.146 31.1687 121.146 31.1707C121.145 31.1746 121.144 31.1811 121.143 31.1899C121.139 31.2075 121.134 31.2344 121.126 31.2693C121.111 31.339 121.085 31.4398 121.045 31.5602C120.966 31.802 120.833 32.1167 120.619 32.4164C120.406 32.715 120.116 32.9951 119.72 33.1775C119.326 33.3592 118.812 33.4514 118.137 33.3506L118.063 33.8448ZM121.394 31.2038C121.287 30.9777 121.288 30.9776 121.288 30.9776C121.288 30.9776 121.288 30.9776 121.288 30.9775C121.288 30.9775 121.288 30.9775 121.288 30.9775C121.288 30.9774 121.288 30.9774 121.288 30.9774C121.288 30.9774 121.288 30.9775 121.287 30.9778C121.286 30.9783 121.284 30.9792 121.281 30.9805C121.275 30.9832 121.265 30.9875 121.251 30.9931C121.224 31.0042 121.182 31.0207 121.125 31.0401C121.012 31.079 120.843 31.1295 120.625 31.1732C120.19 31.2606 119.561 31.3205 118.795 31.2054L118.721 31.6995C119.552 31.8245 120.24 31.7601 120.724 31.6631C120.965 31.6146 121.156 31.558 121.288 31.5127C121.354 31.49 121.405 31.4702 121.441 31.4556C121.458 31.4483 121.472 31.4423 121.482 31.4379C121.487 31.4357 121.491 31.4339 121.494 31.4326C121.496 31.4319 121.497 31.4313 121.498 31.4309C121.498 31.4306 121.499 31.4304 121.499 31.4303C121.499 31.4302 121.5 31.4301 121.5 31.4301C121.5 31.43 121.5 31.43 121.5 31.43C121.5 31.4299 121.5 31.4299 121.394 31.2038ZM118.795 31.2053C117.101 30.9531 115.661 30.034 114.394 28.8758L114.057 29.2446C115.361 30.4371 116.89 31.4269 118.721 31.6995L118.795 31.2053ZM114.475 29.0555C114.433 26.8224 114.06 24.4693 113.423 22.6272C113.105 21.7068 112.716 20.902 112.262 20.3023C111.809 19.705 111.269 19.2841 110.643 19.1917L110.57 19.6861C111.014 19.7516 111.451 20.0592 111.864 20.6042C112.275 21.1468 112.642 21.8981 112.951 22.7905C113.567 24.574 113.934 26.8737 113.976 29.065L114.475 29.0555ZM110.643 19.1918C109.786 19.0648 108.89 19.4539 108.205 19.981C107.859 20.2476 107.556 20.5577 107.327 20.8742C107.1 21.1877 106.935 21.5229 106.887 21.8395L107.382 21.9137C107.413 21.705 107.531 21.4446 107.732 21.1671C107.93 20.8928 108.199 20.6167 108.51 20.3769C109.141 19.8914 109.902 19.587 110.57 19.686L110.643 19.1918ZM106.887 21.8396C106.821 22.2832 106.878 22.8768 107.039 23.5483C107.202 24.2245 107.475 24.9978 107.857 25.8079C108.62 27.4273 109.824 29.2084 111.474 30.6639L111.804 30.2892C110.214 28.8856 109.047 27.1627 108.309 25.5949C107.939 24.8113 107.679 24.0702 107.525 23.4315C107.37 22.7879 107.329 22.266 107.382 21.9136L106.887 21.8396ZM111.392 30.4395L111.252 31.3719L111.746 31.446L111.886 30.5135L111.392 30.4395ZM111.252 31.372C110.11 39.0152 107.089 46.4726 103.603 51.9017C101.859 54.6167 100.006 56.8144 98.222 58.2741C96.4302 59.7404 94.7505 60.4289 93.3413 60.218L93.2673 60.7122C94.887 60.9546 96.7093 60.1577 98.5385 58.6608C100.376 57.1574 102.262 54.9143 104.023 52.1717C107.546 46.6859 110.594 39.162 111.746 31.4458L111.252 31.372ZM93.3412 60.218C92.1334 60.0377 91.2565 59.4097 90.6537 58.4398C90.0452 57.4606 89.7118 56.1239 89.6284 54.5351C89.4616 51.3579 90.2987 47.2558 91.7925 43.2329C93.2856 39.2121 95.4249 35.2971 97.8401 32.4912C100.267 29.6718 102.914 28.0362 105.428 28.4118L105.501 27.9176C102.719 27.5019 99.9136 29.3163 97.4614 32.1652C94.9977 35.0274 92.8318 38.9986 91.3241 43.059C89.8171 47.1171 88.9577 51.291 89.1294 54.5613C89.2152 56.1962 89.5598 57.6261 90.2293 58.7035C90.9046 59.7902 91.9058 60.5089 93.2674 60.7122L93.3412 60.218ZM105.557 28.397L105.563 28.3943L105.379 27.9298L105.372 27.9324L105.557 28.397ZM136.045 59.1286C135.724 61.2801 135.623 62.9135 135.858 64.053C135.976 64.6274 136.183 65.0957 136.507 65.4417C136.835 65.7913 137.264 65.9961 137.786 66.0745L137.86 65.5803C137.429 65.5157 137.11 65.3541 136.872 65.1C136.63 64.8424 136.454 64.4699 136.347 63.9523C136.132 62.908 136.219 61.3534 136.54 59.2024L136.045 59.1286ZM137.787 66.0746C138.531 66.1838 139.23 65.7091 139.323 65.0838L138.829 65.0104C138.784 65.3128 138.384 65.6572 137.859 65.5802L137.787 66.0746ZM139.323 65.0841C139.332 65.0227 139.377 64.8875 139.478 64.6656C139.574 64.4522 139.711 64.1799 139.887 63.8547C140.239 63.2048 140.739 62.354 141.358 61.3594C142.598 59.3707 144.311 56.8149 146.263 54.155C148.215 51.4949 150.404 48.7336 152.596 46.3325C154.79 43.9284 156.976 41.8977 158.92 40.6872L158.656 40.263C156.653 41.5099 154.431 43.5805 152.227 45.9956C150.02 48.4138 147.819 51.1899 145.86 53.8594C143.9 56.5291 142.18 59.0953 140.934 61.0952C140.312 62.0948 139.806 62.955 139.448 63.6169C139.269 63.9476 139.125 64.2315 139.022 64.4599C138.923 64.68 138.849 64.8724 138.829 65.0101L139.323 65.0841ZM158.924 40.6849C159.314 40.4329 159.649 40.3638 159.825 40.3969C159.905 40.4118 159.923 40.4402 159.929 40.4518C159.938 40.4702 159.956 40.5345 159.904 40.6775L160.374 40.8479C160.451 40.6353 160.469 40.4189 160.378 40.233C160.284 40.0403 160.104 39.9408 159.917 39.9058C159.561 39.8388 159.092 39.9815 158.652 40.2652L158.924 40.6849ZM159.91 40.6633C158.346 44.27 155.699 51.6188 154.18 61.7716L154.675 61.8455C156.186 51.7405 158.819 44.4337 160.368 40.8621L159.91 40.6633ZM154.18 61.7716C153.507 66.2779 153.493 70.2919 154.187 73.2695C154.877 76.2352 156.296 78.2623 158.555 78.5991L158.629 78.1048C156.684 77.8149 155.35 76.0605 154.673 73.1562C154 70.264 154.006 66.3196 154.675 61.8455L154.18 61.7716ZM158.555 78.599C159.866 78.7955 161.085 78.0299 161.941 77.2765C162.376 76.894 162.732 76.5011 162.98 76.2044C163.104 76.0558 163.202 75.9308 163.268 75.8423C163.302 75.7981 163.327 75.763 163.345 75.7387C163.354 75.7265 163.36 75.717 163.365 75.7104C163.367 75.7072 163.369 75.7046 163.37 75.7028C163.371 75.7018 163.372 75.7011 163.372 75.7006C163.372 75.7003 163.372 75.7001 163.372 75.6999C163.372 75.6998 163.373 75.6997 163.373 75.6997C163.373 75.6996 163.373 75.6996 163.167 75.5572C162.962 75.4149 162.962 75.4149 162.962 75.4148C162.962 75.4148 162.962 75.4148 162.962 75.4148C162.962 75.4149 162.962 75.4149 162.962 75.415C162.962 75.4153 162.961 75.4157 162.961 75.4163C162.96 75.4175 162.959 75.4194 162.957 75.4221C162.953 75.4274 162.947 75.4356 162.94 75.4464C162.924 75.4681 162.9 75.5004 162.869 75.5417C162.807 75.6243 162.715 75.7427 162.597 75.8841C162.36 76.1674 162.021 76.5403 161.611 76.9013C160.777 77.6349 159.709 78.2666 158.629 78.1049L158.555 78.599ZM163.167 75.5572C163.384 75.6823 163.384 75.6822 163.384 75.6821C163.384 75.6821 163.384 75.682 163.384 75.6819C163.384 75.6818 163.384 75.6816 163.384 75.6814C163.384 75.6811 163.385 75.6807 163.385 75.6803C163.385 75.6794 163.386 75.6783 163.387 75.6771C163.388 75.6746 163.39 75.6714 163.392 75.6675C163.396 75.6597 163.402 75.649 163.408 75.6359C163.421 75.6098 163.438 75.5732 163.455 75.529C163.489 75.4433 163.528 75.317 163.534 75.1778C163.54 75.0367 163.512 74.8642 163.39 74.715C163.267 74.5656 163.08 74.4757 162.84 74.4397L162.766 74.9338C162.926 74.9578 162.983 75.0068 163.004 75.0319C163.024 75.0572 163.038 75.0948 163.035 75.1563C163.032 75.2196 163.013 75.2885 162.99 75.3472C162.979 75.3753 162.968 75.3982 162.961 75.4136C162.957 75.4213 162.954 75.4268 162.952 75.4301C162.951 75.4317 162.951 75.4327 162.951 75.4331C162.95 75.4332 162.95 75.4333 162.951 75.4331C162.951 75.433 162.951 75.4329 162.951 75.4328C162.951 75.4327 162.951 75.4326 162.951 75.4325C162.951 75.4324 162.951 75.4324 162.951 75.4323C162.951 75.4322 162.951 75.4322 163.167 75.5572ZM162.84 74.4397C162.56 74.3976 162.303 74.4947 162.076 74.6163C161.856 74.7343 161.608 74.9096 161.379 75.0533C160.9 75.3545 160.368 75.6125 159.659 75.5059L159.585 76C160.473 76.1335 161.132 75.7984 161.645 75.4764C161.912 75.3086 162.11 75.1649 162.312 75.0567C162.507 74.9521 162.647 74.9159 162.766 74.9338L162.84 74.4397ZM159.659 75.5058C159.324 75.4556 159.044 75.3011 158.816 75.0068C158.582 74.7052 158.394 74.2448 158.278 73.5732C158.046 72.2272 158.119 70.1164 158.589 66.9762L158.095 66.9022C157.623 70.0523 157.54 72.2292 157.786 73.658C157.909 74.3738 158.118 74.9226 158.421 75.3129C158.729 75.7107 159.125 75.9311 159.585 76L159.659 75.5058ZM158.589 66.9762C159.562 60.4749 161.593 53.9392 163.383 49.0248C164.277 46.5685 165.111 44.5194 165.721 43.0846C166.026 42.3673 166.275 41.8037 166.447 41.4197C166.533 41.2277 166.601 41.0806 166.646 40.9816C166.669 40.9322 166.686 40.8947 166.698 40.8697C166.704 40.8573 166.708 40.8479 166.711 40.8416C166.712 40.8385 166.713 40.8362 166.714 40.8347C166.715 40.8339 166.715 40.8334 166.715 40.833C166.715 40.8328 166.715 40.8327 166.715 40.8326C166.715 40.8325 166.715 40.8325 166.489 40.7262C166.263 40.6198 166.263 40.6199 166.263 40.62C166.263 40.6201 166.263 40.6203 166.263 40.6205C166.263 40.621 166.262 40.6216 166.262 40.6224C166.261 40.6241 166.26 40.6266 166.258 40.6298C166.255 40.6364 166.251 40.6461 166.245 40.6589C166.233 40.6845 166.215 40.7226 166.192 40.7727C166.146 40.873 166.078 41.0215 165.991 41.2149C165.817 41.6018 165.567 42.1685 165.261 42.8892C164.648 44.3305 163.811 46.3879 162.913 48.8538C161.118 53.7836 159.075 60.3544 158.095 66.9022L158.589 66.9762ZM166.736 40.7632C166.922 39.5224 166.721 38.4797 166.114 37.6959C165.509 36.9139 164.534 36.431 163.257 36.2415L163.183 36.7358C164.38 36.9133 165.218 37.354 165.719 38.0016C166.218 38.6472 166.414 39.5397 166.242 40.6891L166.736 40.7632ZM163.257 36.2415C161.646 36.0005 159.846 36.6333 157.991 37.8007C156.13 38.9718 154.176 40.7036 152.242 42.7228C148.372 46.7622 144.55 51.9857 141.666 56.2767L142.081 56.5554C144.959 52.2733 148.763 47.0773 152.603 43.0685C154.523 41.0635 156.445 39.364 158.257 38.2237C160.075 37.0797 161.748 36.521 163.183 36.7357L163.257 36.2415ZM141.911 56.1691L141.284 56.0733L141.208 56.5673L141.836 56.6631L141.911 56.1691ZM141.484 56.3946C143.127 51.1186 145.298 45.8388 147.059 41.8759C147.94 39.8949 148.717 38.2442 149.274 37.0889C149.553 36.5113 149.777 36.0575 149.931 35.7484C150.007 35.5938 150.067 35.4754 150.107 35.3957C150.127 35.3559 150.143 35.3257 150.153 35.3056C150.158 35.2955 150.162 35.2879 150.164 35.2829C150.166 35.2804 150.167 35.2785 150.167 35.2773C150.168 35.2767 150.168 35.2762 150.168 35.2759C150.168 35.2757 150.168 35.2756 150.168 35.2756C150.168 35.2755 150.168 35.2755 149.946 35.1618C149.723 35.0481 149.723 35.0482 149.723 35.0483C149.723 35.0484 149.723 35.0485 149.723 35.0487C149.723 35.049 149.722 35.0495 149.722 35.0502C149.721 35.0515 149.72 35.0535 149.719 35.0561C149.716 35.0613 149.712 35.0691 149.707 35.0794C149.697 35.0999 149.681 35.1304 149.661 35.1707C149.62 35.2511 149.561 35.3704 149.483 35.5258C149.329 35.8366 149.104 36.2922 148.824 36.8718C148.265 38.0309 147.485 39.6865 146.603 41.6729C144.837 45.6448 142.658 50.9443 141.007 56.2461L141.484 56.3946ZM150.193 35.1985C150.366 34.0316 150.182 32.9758 149.596 32.1565C149.009 31.3355 148.043 30.788 146.725 30.5887L146.65 31.0827C147.87 31.2671 148.699 31.7616 149.19 32.4472C149.682 33.1345 149.858 34.0498 149.698 35.1251L150.193 35.1985ZM146.724 30.5886C144.748 30.2931 142.659 31.0011 140.566 32.3493C138.47 33.699 136.341 35.7077 134.27 38.0646C130.127 42.7792 126.184 48.9254 123.169 54.0977L123.601 54.3493C126.61 49.1861 130.534 43.0727 134.645 38.3944C136.701 36.0549 138.795 34.0839 140.836 32.7694C142.88 31.4533 144.843 30.8127 146.65 31.0828L146.724 30.5886ZM123.422 53.9764L122.705 53.8698L122.632 54.364L123.348 54.4706L123.422 53.9764ZM122.909 54.1856C124.613 48.2227 126.811 42.4983 128.585 38.2631C129.471 36.1459 130.251 34.4018 130.81 33.1873C131.089 32.5801 131.312 32.1053 131.466 31.7825C131.543 31.6211 131.602 31.4977 131.642 31.4148C131.662 31.3733 131.678 31.342 131.688 31.3211C131.693 31.3106 131.697 31.3027 131.699 31.2975C131.701 31.2949 131.702 31.2929 131.702 31.2917C131.703 31.291 131.703 31.2905 131.703 31.2902C131.703 31.2901 131.703 31.29 131.703 31.2899C131.703 31.2898 131.703 31.2898 131.479 31.1797C131.255 31.0696 131.255 31.0696 131.255 31.0697C131.254 31.0698 131.254 31.07 131.254 31.0701C131.254 31.0705 131.254 31.071 131.254 31.0717C131.253 31.0731 131.252 31.0752 131.251 31.0779C131.248 31.0833 131.244 31.0914 131.239 31.1021C131.228 31.1234 131.213 31.1552 131.193 31.1972C131.152 31.281 131.092 31.4053 131.015 31.5677C130.86 31.8924 130.636 32.3692 130.356 32.9787C129.795 34.1975 129.013 35.9469 128.124 38.0701C126.346 42.3157 124.14 48.0599 122.428 54.0483L122.909 54.1856ZM131.726 31.2165C131.81 30.651 131.73 30.1432 131.471 29.7502C131.209 29.3533 130.787 29.1065 130.255 29.0274L130.181 29.5217C130.598 29.5836 130.883 29.7664 131.054 30.0252C131.227 30.2881 131.303 30.6623 131.232 31.1429L131.726 31.2165ZM130.255 29.0275C128.915 28.8267 127.575 29.7599 126.314 31.3506C125.04 32.9584 123.783 35.317 122.61 38.1584C120.265 43.8448 118.237 51.5198 117.098 59.1401L117.592 59.2139C118.726 51.625 120.745 43.9906 123.072 38.349C124.237 35.5264 125.473 33.2163 126.706 31.661C127.952 30.0886 129.131 29.3643 130.181 29.5217L130.255 29.0275ZM117.098 59.1401C116.777 61.2917 116.675 62.925 116.91 64.0645C117.028 64.6389 117.235 65.1072 117.56 65.4533C117.887 65.8028 118.316 66.0076 118.838 66.086L118.912 65.5918C118.482 65.5272 118.162 65.3656 117.924 65.1115C117.683 64.8539 117.506 64.4814 117.399 63.9638C117.185 62.9195 117.271 61.3649 117.592 59.2139L117.098 59.1401ZM118.837 66.0859C119.603 66.2029 120.284 65.715 120.377 65.0789L119.882 65.0065C119.835 65.33 119.444 65.6732 118.913 65.5919L118.837 66.0859ZM120.377 65.0795C120.388 65.0056 120.441 64.8394 120.554 64.5686C120.664 64.3067 120.819 63.9685 121.017 63.5627C121.413 62.7516 121.975 61.6787 122.671 60.4207C124.064 57.9052 125.987 54.656 128.175 51.291C130.363 47.9255 132.813 44.4477 135.258 41.4731C137.707 38.4938 140.136 36.0376 142.281 34.6972L142.016 34.2735C139.8 35.6584 137.329 38.1667 134.872 41.1558C132.411 44.1495 129.95 47.6438 127.756 51.0186C125.561 54.3939 123.632 57.6532 122.234 60.1788C121.535 61.4414 120.969 62.5223 120.568 63.3436C120.368 63.754 120.208 64.1018 120.093 64.3762C119.982 64.6417 119.904 64.8621 119.882 65.006L120.377 65.0795ZM142.28 34.698C142.74 34.4138 143.124 34.3576 143.318 34.4134C143.404 34.4379 143.435 34.4768 143.448 34.5141C143.465 34.5618 143.472 34.6643 143.395 34.8428L143.853 35.0411C143.958 34.799 143.993 34.5591 143.919 34.3486C143.842 34.1277 143.663 33.9925 143.456 33.9331C143.065 33.8208 142.529 33.9568 142.017 34.2727L142.28 34.698ZM143.394 34.8456C141.918 38.3743 137.65 48.3378 136.04 59.1153L136.534 59.1892C138.134 48.481 142.377 38.5706 143.855 35.0383L143.394 34.8456ZM136.055 59.2446L136.06 59.2578L136.525 59.0732L136.519 59.0599L136.055 59.2446ZM259.278 47.8502C258.939 50.1186 258.862 51.8448 259.062 53.041C259.163 53.6398 259.335 54.1256 259.595 54.4816C259.861 54.8449 260.213 55.0651 260.643 55.1303L260.718 54.6363C260.427 54.5922 260.19 54.4487 259.999 54.1866C259.802 53.9172 259.648 53.5159 259.555 52.9586C259.369 51.8425 259.435 50.18 259.772 47.9242L259.278 47.8502ZM260.645 55.1306C261.008 55.1833 261.382 55.1218 261.687 54.928C261.997 54.7312 262.22 54.4079 262.286 53.9758L261.793 53.8998C261.747 54.1941 261.604 54.389 261.419 54.5061C261.23 54.6263 260.98 54.6744 260.716 54.6361L260.645 55.1306ZM262.287 53.9747C263.449 46.187 266.463 38.0351 269.191 31.8227C270.555 28.7182 271.845 26.1015 272.795 24.2613C273.27 23.3412 273.659 22.6154 273.93 22.1199C274.065 21.8721 274.171 21.6819 274.242 21.5539C274.278 21.4899 274.305 21.4413 274.324 21.4089C274.333 21.3927 274.34 21.3805 274.344 21.3724C274.347 21.3684 274.348 21.3654 274.35 21.3634C274.35 21.3624 274.351 21.3617 274.351 21.3612C274.351 21.3609 274.351 21.3608 274.351 21.3607C274.351 21.3606 274.351 21.3605 274.134 21.2365C273.918 21.1124 273.917 21.1125 273.917 21.1127C273.917 21.1128 273.917 21.113 273.917 21.1133C273.917 21.1139 273.916 21.1147 273.916 21.1158C273.914 21.1179 273.913 21.1211 273.91 21.1253C273.905 21.1338 273.898 21.1463 273.889 21.1628C273.87 21.1959 273.842 21.2451 273.806 21.3099C273.734 21.4394 273.627 21.6311 273.491 21.8804C273.219 22.379 272.828 23.1083 272.351 24.0321C271.397 25.8797 270.102 28.5059 268.734 31.6218C265.998 37.8502 262.964 46.049 261.792 53.9009L262.287 53.9747ZM274.381 21.2739C274.477 20.6465 274.417 20.0628 274.131 19.6024C273.839 19.1342 273.34 18.8366 272.65 18.7336L272.576 19.2278C273.158 19.3147 273.51 19.5511 273.706 19.8664C273.907 20.1895 273.972 20.6387 273.887 21.199L274.381 21.2739ZM272.65 18.7336C271.208 18.517 269.795 19.3814 268.48 20.9121C267.157 22.4516 265.881 24.7223 264.708 27.4661C262.36 32.9573 260.395 40.4018 259.285 47.8477L259.779 47.9215C260.885 40.506 262.84 33.1049 265.167 27.6626C266.332 24.9397 267.584 22.7218 268.859 21.2377C270.141 19.7448 271.397 19.0507 272.576 19.2277L272.65 18.7336ZM259.44 47.6524L259.433 47.655L259.617 48.1194L259.624 48.1168L259.44 47.6524ZM279.504 2.65799C278.366 2.48736 277.369 2.99483 276.578 3.80754C275.789 4.61846 275.181 5.75269 274.798 6.90708C274.415 8.06057 274.246 9.2609 274.36 10.2133C274.471 11.1483 274.878 11.9592 275.749 12.0891L275.822 11.5948C275.305 11.5176 274.961 11.0304 274.856 10.1541C274.754 9.29518 274.904 8.17101 275.272 7.0646C275.639 5.9591 276.214 4.89805 276.936 4.15611C277.657 3.41596 278.502 3.013 279.43 3.15216L279.504 2.65799ZM275.785 11.842C275.965 12.0162 275.965 12.0161 275.965 12.0161C275.965 12.016 275.965 12.016 275.965 12.0159C275.965 12.0157 275.965 12.0155 275.965 12.0152C275.966 12.0145 275.967 12.0136 275.968 12.0124C275.971 12.01 275.974 12.0064 275.978 12.0018C275.988 11.9924 276.001 11.9786 276.018 11.9605C276.053 11.9243 276.104 11.8711 276.169 11.8028C276.298 11.6661 276.484 11.4688 276.707 11.2256C277.153 10.7395 277.752 10.0692 278.361 9.33349C278.97 8.59856 279.592 7.79447 280.083 7.04123C280.567 6.29782 280.947 5.57022 281.034 4.99636L280.54 4.92149C280.47 5.37925 280.147 6.02783 279.664 6.76842C279.188 7.49917 278.579 8.28689 277.976 9.01482C277.374 9.74199 276.781 10.4056 276.339 10.8877C276.118 11.1286 275.934 11.3239 275.806 11.4589C275.742 11.5264 275.692 11.5788 275.658 11.6142C275.641 11.6319 275.628 11.6454 275.619 11.6544C275.615 11.6589 275.612 11.6623 275.609 11.6645C275.608 11.6656 275.608 11.6665 275.607 11.667C275.607 11.6673 275.607 11.6675 275.606 11.6676C275.606 11.6677 275.606 11.6677 275.606 11.6677C275.606 11.6677 275.606 11.6677 275.785 11.842ZM281.034 4.99538C281.125 4.3743 281.079 3.83215 280.822 3.41599C280.559 2.98996 280.108 2.7473 279.508 2.65983L279.436 3.15429C279.941 3.22789 280.235 3.41631 280.397 3.67851C280.565 3.95059 280.623 4.35384 280.539 4.92247L281.034 4.99538ZM279.571 2.67772L279.566 2.67572L279.368 3.13442L279.373 3.13641L279.571 2.67772ZM300.688 58.5969C302.007 49.7582 304.815 42.1699 307.294 36.7905C308.533 34.1012 309.69 31.9651 310.537 30.5022C310.96 29.7708 311.305 29.2077 311.545 28.8281C311.664 28.6383 311.757 28.4943 311.82 28.398C311.852 28.3499 311.876 28.3137 311.892 28.2897C311.9 28.2777 311.906 28.2687 311.91 28.2628C311.912 28.2599 311.913 28.2577 311.914 28.2563C311.915 28.2556 311.915 28.2551 311.915 28.2547C311.915 28.2546 311.916 28.2545 311.916 28.2544C311.916 28.2544 311.916 28.2544 311.709 28.1141C311.502 27.9738 311.502 27.9739 311.502 27.9741C311.502 27.9742 311.502 27.9744 311.502 27.9746C311.501 27.9751 311.501 27.9757 311.5 27.9766C311.499 27.9782 311.497 27.9807 311.495 27.9839C311.491 27.9904 311.485 27.9999 311.476 28.0125C311.459 28.0376 311.435 28.075 311.402 28.1243C311.338 28.2229 311.243 28.3693 311.122 28.5616C310.879 28.9463 310.531 29.5147 310.104 30.252C309.251 31.7264 308.087 33.8762 306.84 36.5813C304.347 41.9907 301.521 49.6253 300.194 58.5232L300.688 58.5969ZM311.956 28.1513C312.045 27.5587 311.971 27.0212 311.722 26.6036C311.469 26.1797 311.052 25.9061 310.516 25.8241L310.44 26.3181C310.841 26.3794 311.123 26.5743 311.293 26.8595C311.467 27.151 311.539 27.5633 311.462 28.0769L311.956 28.1513ZM310.515 25.824C309.342 25.6476 308.192 26.1393 307.093 27.0321C305.993 27.9257 304.913 29.2455 303.865 30.7941L304.279 31.0742C305.316 29.5419 306.364 28.2685 307.409 27.42C308.454 26.5707 309.465 26.1713 310.441 26.3181L310.515 25.824ZM303.868 30.7895C302.287 33.0152 297.745 39.2091 293.064 44.7639C290.722 47.5422 288.351 50.154 286.301 52.029C285.276 52.967 284.338 53.7138 283.53 54.2048C282.709 54.7034 282.071 54.9075 281.626 54.8407L281.552 55.3348C282.182 55.4296 282.953 55.1395 283.789 54.6319C284.637 54.1167 285.602 53.3455 286.639 52.3977C288.713 50.5009 291.1 47.8697 293.446 45.086C298.14 39.5167 302.69 33.3107 304.276 31.0788L303.868 30.7895ZM281.626 54.8407C281.096 54.761 280.718 54.2987 280.548 53.351C280.379 52.4124 280.437 51.0924 280.701 49.5074C281.228 46.3438 282.561 42.2057 284.402 38.1359C286.243 34.0658 288.584 30.0827 291.118 27.2213C293.666 24.3452 296.348 22.6702 298.875 23.0491L298.949 22.5549C296.152 22.1355 293.311 23.9926 290.744 26.8899C288.165 29.8019 285.799 33.8335 283.946 37.93C282.093 42.0269 280.745 46.2074 280.208 49.4252C279.941 51.0308 279.872 52.4173 280.056 53.4395C280.238 54.4527 280.694 55.2058 281.552 55.3348L281.626 54.8407ZM298.875 23.0491C300.039 23.2233 300.73 23.9565 301.137 24.668C301.341 25.0242 301.471 25.3705 301.549 25.6281C301.588 25.7566 301.614 25.8622 301.631 25.9347C301.639 25.971 301.644 25.9989 301.648 26.0172C301.65 26.0264 301.651 26.0331 301.652 26.0373C301.652 26.0394 301.652 26.0409 301.652 26.0417C301.652 26.0421 301.652 26.0423 301.653 26.0424C301.653 26.0424 301.653 26.0424 301.653 26.0424C301.652 26.0423 301.652 26.0423 301.652 26.0423C301.652 26.0422 301.652 26.0421 301.899 26.0021C302.146 25.9621 302.146 25.962 302.146 25.9619C302.146 25.9618 302.146 25.9617 302.146 25.9616C302.146 25.9613 302.146 25.9611 302.145 25.9608C302.145 25.9601 302.145 25.9593 302.145 25.9584C302.145 25.9565 302.144 25.9539 302.144 25.9506C302.143 25.9441 302.141 25.935 302.139 25.9234C302.134 25.9002 302.128 25.8671 302.118 25.8255C302.1 25.7422 302.07 25.6244 302.027 25.4825C301.941 25.1993 301.798 24.8165 301.571 24.4199C301.117 23.6261 300.314 22.7592 298.949 22.5549L298.875 23.0491ZM301.899 26.0021C301.651 26.0343 301.651 26.0345 301.651 26.0347C301.651 26.0347 301.651 26.0349 301.651 26.035C301.651 26.0353 301.651 26.0356 301.652 26.0359C301.652 26.0364 301.652 26.0371 301.652 26.0377C301.652 26.0391 301.652 26.0407 301.652 26.0425C301.653 26.0462 301.654 26.0507 301.655 26.0561C301.657 26.0668 301.659 26.0809 301.663 26.098C301.671 26.1321 301.684 26.1781 301.704 26.2328C301.743 26.342 301.811 26.4865 301.928 26.6372C302.167 26.9443 302.59 27.2544 303.319 27.3644L303.394 26.8703C302.784 26.7783 302.478 26.5307 302.323 26.3307C302.243 26.2278 302.198 26.1314 302.174 26.0631C302.161 26.029 302.154 26.0021 302.15 25.9855C302.148 25.9771 302.147 25.9714 302.147 25.9687C302.146 25.9673 302.146 25.9667 302.146 25.9669C302.146 25.967 302.146 25.9673 302.147 25.9677C302.147 25.968 302.147 25.9683 302.147 25.9686C302.147 25.9688 302.147 25.969 302.147 25.9692C302.147 25.9693 302.147 25.9695 302.147 25.9695C302.147 25.9697 302.147 25.9699 301.899 26.0021ZM303.319 27.3643C303.988 27.4662 304.453 27.1055 304.73 26.7611C304.87 26.5883 304.969 26.4117 305.034 26.2796C305.067 26.2131 305.091 26.1568 305.107 26.1164C305.115 26.0962 305.122 26.0798 305.126 26.0681C305.128 26.0622 305.13 26.0575 305.131 26.054C305.132 26.0522 305.132 26.0508 305.132 26.0496C305.133 26.0491 305.133 26.0486 305.133 26.0482C305.133 26.048 305.133 26.0478 305.133 26.0476C305.133 26.0476 305.133 26.0475 305.133 26.0474C305.133 26.0473 305.133 26.0472 304.897 25.9666C304.66 25.886 304.66 25.8859 304.66 25.8858C304.66 25.8858 304.66 25.8857 304.66 25.8857C304.661 25.8856 304.661 25.8855 304.661 25.8855C304.661 25.8854 304.661 25.8854 304.661 25.8855C304.66 25.8856 304.66 25.8861 304.66 25.8868C304.66 25.8883 304.659 25.8909 304.657 25.8946C304.654 25.9021 304.65 25.9139 304.644 25.9293C304.631 25.9603 304.612 26.0056 304.585 26.06C304.532 26.1696 304.451 26.3119 304.341 26.4475C304.122 26.72 303.816 26.9347 303.394 26.8703L303.319 27.3643ZM304.897 25.9666C305.145 25.9336 305.144 25.9335 305.144 25.9333C305.144 25.9332 305.144 25.9331 305.144 25.9329C305.144 25.9326 305.144 25.9323 305.144 25.9318C305.144 25.931 305.144 25.9298 305.144 25.9284C305.143 25.9256 305.143 25.9217 305.142 25.9167C305.141 25.9068 305.138 25.8926 305.135 25.8745C305.129 25.8383 305.12 25.7862 305.107 25.7203C305.08 25.5885 305.037 25.4013 304.971 25.1752C304.84 24.7237 304.616 24.1139 304.245 23.4811C303.501 22.2113 302.162 20.8462 299.812 20.4949L299.738 20.9891C301.903 21.3127 303.126 22.5599 303.814 23.7337C304.159 24.3227 304.368 24.8924 304.492 25.3151C304.553 25.5261 304.593 25.6996 304.617 25.8193C304.629 25.8791 304.637 25.9254 304.642 25.9562C304.645 25.9715 304.647 25.983 304.648 25.9903C304.648 25.994 304.649 25.9966 304.649 25.9982C304.649 25.999 304.649 25.9995 304.649 25.9997C304.649 25.9998 304.649 25.9999 304.649 25.9999C304.649 25.9999 304.649 25.9998 304.649 25.9998C304.649 25.9997 304.649 25.9996 304.897 25.9666ZM299.812 20.495C295.349 19.8268 291.02 21.7335 287.273 24.9514C283.524 28.1706 280.33 32.7233 278.121 37.4159C275.913 42.1054 274.677 46.9622 274.871 50.7946C274.968 52.7119 275.424 54.3919 276.316 55.6646C277.214 56.9445 278.539 57.7944 280.329 58.063L280.404 57.5689C278.743 57.3198 277.541 56.5412 276.726 55.3778C275.905 54.2072 275.464 52.629 275.37 50.7693C275.181 47.0479 276.386 42.2755 278.573 37.6287C280.759 32.9849 283.915 28.4941 287.599 25.3305C291.284 22.1656 295.472 20.3504 299.738 20.9891L299.812 20.495ZM280.329 58.063C281.407 58.2252 282.693 57.8031 284.08 57.0134C285.475 56.2189 287.012 55.0288 288.605 53.5925C291.794 50.7188 295.241 46.8321 298.281 43.0694L297.893 42.7554C294.86 46.5092 291.432 50.3729 288.271 53.2213C286.69 54.6459 285.183 55.8097 283.832 56.5792C282.473 57.3534 281.311 57.7054 280.404 57.5689L280.329 58.063ZM298.05 43.1595L298.845 43.2793L298.919 42.7852L298.124 42.6654L298.05 43.1595ZM298.644 42.9565C297.558 46.3682 296.684 50.0524 296.185 53.4032L296.679 53.4768C297.174 50.1548 298.042 46.4966 299.12 43.108L298.644 42.9565ZM296.185 53.4031C295.543 57.7058 295.513 61.7174 296.239 64.753C296.964 67.7806 298.468 69.919 300.952 70.2921L301.026 69.7979C298.848 69.4707 297.433 67.5932 296.725 64.6366C296.019 61.688 296.042 57.7473 296.679 53.4769L296.185 53.4031ZM300.952 70.2921C301.829 70.4239 302.662 70.1219 303.401 69.6287C304.14 69.1357 304.807 68.4384 305.363 67.7377C305.922 67.0354 306.377 66.3196 306.693 65.7805C306.852 65.5107 306.975 65.2843 307.059 65.1249C307.102 65.0452 307.134 64.9822 307.156 64.9389C307.167 64.9172 307.175 64.9005 307.181 64.889C307.184 64.8833 307.186 64.8788 307.187 64.8758C307.188 64.8743 307.189 64.8731 307.189 64.8722C307.189 64.8718 307.19 64.8715 307.19 64.8712C307.19 64.8711 307.19 64.871 307.19 64.8709C307.19 64.8708 307.19 64.8708 306.965 64.7615C306.74 64.6523 306.741 64.6522 306.741 64.6522C306.74 64.6523 306.74 64.6523 306.74 64.6523C306.74 64.6524 306.74 64.6526 306.74 64.6529C306.74 64.6534 306.739 64.6543 306.739 64.6556C306.738 64.6581 306.736 64.6619 306.733 64.6671C306.728 64.6773 306.72 64.6929 306.71 64.7133C306.689 64.7541 306.658 64.8144 306.618 64.8913C306.536 65.0452 306.416 65.2651 306.262 65.5279C305.954 66.054 305.511 66.7486 304.972 67.4269C304.432 68.1067 303.803 68.7601 303.124 69.213C302.445 69.6658 301.737 69.9048 301.026 69.7979L300.952 70.2921ZM306.965 64.7615C307.193 64.8644 307.193 64.8643 307.193 64.8642C307.193 64.8641 307.193 64.864 307.193 64.8639C307.193 64.8638 307.193 64.8636 307.193 64.8634C307.193 64.8631 307.194 64.8627 307.194 64.8622C307.194 64.8613 307.195 64.8602 307.195 64.8588C307.196 64.8562 307.198 64.8527 307.2 64.8484C307.203 64.8399 307.208 64.8283 307.213 64.814C307.224 64.7854 307.238 64.7455 307.252 64.6974C307.279 64.6033 307.308 64.4681 307.305 64.3216C307.302 64.1748 307.267 63.9988 307.145 63.8466C307.021 63.6909 306.833 63.5919 306.587 63.5548L306.512 64.0489C306.664 64.0718 306.726 64.1227 306.755 64.1581C306.786 64.1972 306.804 64.2536 306.806 64.3317C306.807 64.4101 306.791 64.4923 306.772 64.5595C306.763 64.592 306.753 64.6186 306.746 64.6364C306.743 64.6453 306.74 64.6518 306.739 64.6557C306.738 64.6576 306.737 64.6588 306.737 64.6594C306.737 64.6596 306.737 64.6597 306.737 64.6596C306.737 64.6595 306.737 64.6594 306.737 64.6593C306.737 64.6592 306.737 64.6591 306.737 64.659C306.737 64.659 306.737 64.6589 306.737 64.6588C306.737 64.6588 306.737 64.6587 306.965 64.7615ZM306.587 63.5549C306.053 63.4736 305.665 63.693 305.421 63.9236C305.301 64.0375 305.214 64.1552 305.157 64.2442C305.128 64.2889 305.106 64.3272 305.091 64.3552C305.084 64.3692 305.078 64.3807 305.074 64.3892C305.072 64.3935 305.07 64.397 305.069 64.3997C305.068 64.4011 305.068 64.4023 305.067 64.4032C305.067 64.4037 305.067 64.4042 305.067 64.4045C305.067 64.4047 305.066 64.4049 305.066 64.4051C305.066 64.4051 305.066 64.4053 305.066 64.4053C305.066 64.4054 305.066 64.4055 305.294 64.5084C305.522 64.6112 305.522 64.6113 305.521 64.6114C305.521 64.6114 305.521 64.6115 305.521 64.6116C305.521 64.6117 305.521 64.6118 305.521 64.6119C305.521 64.612 305.521 64.6122 305.521 64.6123C305.521 64.6124 305.521 64.6124 305.521 64.6122C305.521 64.6117 305.522 64.6106 305.523 64.6087C305.525 64.605 305.528 64.5986 305.532 64.5899C305.542 64.5725 305.557 64.5462 305.577 64.5143C305.618 64.4499 305.681 64.366 305.765 64.2867C305.93 64.1307 306.17 63.9968 306.512 64.0489L306.587 63.5549ZM305.294 64.5084C305.066 64.4063 305.066 64.4063 305.066 64.4062C305.066 64.4062 305.066 64.4062 305.066 64.4062C305.066 64.4062 305.066 64.4063 305.066 64.4064C305.066 64.4066 305.066 64.407 305.065 64.4076C305.065 64.4087 305.064 64.4107 305.063 64.4133C305.06 64.4186 305.056 64.4269 305.051 64.4379C305.041 64.4598 305.025 64.4926 305.004 64.5346C304.962 64.6186 304.899 64.7392 304.817 64.8833C304.651 65.1722 304.409 65.5521 304.101 65.9202C303.474 66.67 302.634 67.3022 301.654 67.1564L301.581 67.6506C302.833 67.8369 303.832 67.0215 304.485 66.2407C304.817 65.8435 305.075 65.4373 305.25 65.1316C305.338 64.9783 305.405 64.8494 305.451 64.7582C305.474 64.7126 305.491 64.6764 305.503 64.6512C305.509 64.6386 305.514 64.6288 305.517 64.6219C305.518 64.6185 305.52 64.6158 305.52 64.6138C305.521 64.6129 305.521 64.6121 305.521 64.6115C305.522 64.6112 305.522 64.611 305.522 64.6108C305.522 64.6107 305.522 64.6106 305.522 64.6106C305.522 64.6105 305.522 64.6104 305.294 64.5084ZM301.654 67.1564C301.319 67.1062 301.047 66.9559 300.828 66.6695C300.603 66.3749 300.425 65.9223 300.32 65.2532C300.109 63.9123 300.204 61.7938 300.682 58.5996L300.188 58.5257C299.709 61.7263 299.603 63.9094 299.826 65.3308C299.938 66.0429 300.136 66.5865 300.431 66.9727C300.732 67.3671 301.123 67.582 301.58 67.6506L301.654 67.1564ZM300.527 58.7949L300.533 58.7923L300.349 58.3277L300.343 58.3303L300.527 58.7949ZM194.185 91.823C187.705 90.8475 183.604 88.7278 181.208 86.1495C178.817 83.5761 178.102 80.5213 178.439 77.6163C178.778 74.7051 180.174 71.9475 182 69.9979C183.833 68.0413 186.055 66.941 188.039 67.2385L188.113 66.7444C185.898 66.4122 183.523 67.6416 181.635 69.6563C179.741 71.678 178.295 74.5332 177.943 77.5587C177.591 80.5905 178.34 83.7963 180.842 86.4896C183.34 89.1781 187.562 91.3313 194.111 92.3171L194.185 91.823ZM188.034 67.2377C188.413 67.3026 188.74 67.1305 188.978 66.8849C189.215 66.6405 189.387 66.3034 189.477 65.963C189.567 65.6244 189.585 65.252 189.479 64.9374C189.368 64.6083 189.118 64.344 188.71 64.2824L188.635 64.7765C188.831 64.8061 188.945 64.9185 189.005 65.0973C189.071 65.2905 189.068 65.5572 188.994 65.8346C188.921 66.1101 188.785 66.366 188.619 66.5372C188.455 66.7073 188.284 66.7735 188.118 66.7452L188.034 67.2377ZM188.71 64.2824C185.334 63.7735 181.993 65.2678 179.41 67.8313C176.826 70.3959 174.974 74.0526 174.573 77.9313C174.171 81.8158 175.224 85.9237 178.45 89.3678C181.672 92.8081 187.042 95.5644 195.236 96.7981L195.31 96.304C187.188 95.081 181.937 92.3593 178.815 89.0262C175.696 85.697 174.681 81.7363 175.07 77.9827C175.459 74.2233 177.257 70.6725 179.762 68.1859C182.269 65.6983 185.459 64.2978 188.636 64.7765L188.71 64.2824ZM195.236 96.7981C208.156 98.7433 219.796 94.2628 229.113 86.3372C238.428 78.4142 245.43 67.0426 249.096 55.1737C252.761 43.3071 253.099 30.9149 249.045 20.9557C244.986 10.9814 236.531 3.47385 222.683 1.38917L222.608 1.88329C236.287 3.94239 244.591 11.3373 248.582 21.1441C252.58 30.9661 252.26 43.234 248.618 55.0263C244.977 66.8163 238.023 78.1027 228.79 85.9566C219.559 93.808 208.06 98.2236 195.31 96.304L195.236 96.7981ZM222.683 1.38917C204.658 -1.32374 191.951 5.03453 185.078 12.2995C181.646 15.9267 179.658 19.7931 179.205 22.8793C178.979 24.4224 179.134 25.7929 179.713 26.8388C180.296 27.8949 181.296 28.5914 182.689 28.8014L182.763 28.3073C181.511 28.1184 180.652 27.5056 180.15 26.5971C179.642 25.6784 179.483 24.4289 179.7 22.9517C180.133 19.9971 182.056 16.2209 185.441 12.6429C192.201 5.49736 204.745 -0.80543 222.609 1.88329L222.683 1.38917ZM182.689 28.8015C183.824 28.9709 184.661 28.4825 185.202 27.9682C185.472 27.7116 185.672 27.4459 185.804 27.2447C185.87 27.1438 185.92 27.0584 185.954 26.9973C185.97 26.9668 185.983 26.9422 185.992 26.9249C185.997 26.9162 186 26.9093 186.002 26.9043C186.004 26.9018 186.005 26.8998 186.005 26.8982C186.006 26.8975 186.006 26.8968 186.006 26.8963C186.006 26.8961 186.007 26.8959 186.007 26.8957C186.007 26.8956 186.007 26.8954 186.007 26.8954C186.007 26.8953 186.007 26.8952 185.781 26.7881C185.555 26.681 185.556 26.6809 185.556 26.6808C185.556 26.6808 185.556 26.6807 185.556 26.6807C185.556 26.6806 185.556 26.6806 185.556 26.6806C185.556 26.6806 185.556 26.6807 185.555 26.6809C185.555 26.6814 185.555 26.6823 185.554 26.6838C185.553 26.6866 185.55 26.6913 185.547 26.6977C185.541 26.7106 185.53 26.7304 185.516 26.756C185.488 26.8072 185.445 26.8815 185.386 26.9703C185.269 27.1486 185.093 27.3824 184.858 27.6061C184.389 28.0522 183.698 28.4469 182.763 28.3073L182.689 28.8015ZM185.817 26.5408C185.683 26.5214 185.569 26.4449 185.476 26.2787C185.379 26.1043 185.312 25.8387 185.296 25.4767C185.264 24.7549 185.438 23.7291 185.849 22.503C186.671 20.0563 188.421 16.8743 191.242 13.8475C196.875 7.80246 206.776 2.37543 222.076 4.67958L222.15 4.18546C206.682 1.85583 196.617 7.34591 190.876 13.5068C188.01 16.5829 186.221 19.826 185.376 22.3439C184.954 23.6001 184.761 24.6915 184.797 25.4988C184.815 25.9014 184.89 26.2533 185.04 26.5216C185.193 26.7982 185.43 26.9896 185.745 27.0353L185.817 26.5408ZM222.076 4.67958C234.216 6.50682 241.008 13.2165 243.782 22.1553C246.562 31.1164 245.309 42.3465 241.271 53.188C237.234 64.0258 230.425 74.4424 222.136 81.7696C213.846 89.0978 204.102 93.315 194.181 91.821L194.106 92.3151C204.224 93.8387 214.111 89.5308 222.467 82.1439C230.825 74.7559 237.677 64.2674 241.739 53.3624C245.8 42.4612 247.083 31.1111 244.259 22.0072C241.427 12.8809 234.475 6.04053 222.15 4.18546L222.076 4.67958ZM194.044 92.2972L194.049 92.2992L194.248 91.8408L194.243 91.8388L194.044 92.2972ZM192.079 72.1629C191.635 75.1586 191.521 77.4057 191.833 78.958C191.989 79.7375 192.256 80.3612 192.661 80.8168C193.069 81.277 193.601 81.5476 194.25 81.6451L194.324 81.1509C193.778 81.0688 193.356 80.8479 193.034 80.4851C192.708 80.1176 192.468 79.5865 192.322 78.8596C192.029 77.3991 192.13 75.2267 192.574 72.2363L192.079 72.1629ZM194.249 81.6449C194.719 81.7174 195.181 81.6678 195.554 81.4384C195.935 81.2044 196.185 80.8058 196.268 80.2583L195.774 80.1838C195.709 80.6126 195.526 80.8691 195.292 81.0128C195.051 81.1611 194.72 81.2119 194.325 81.1511L194.249 81.6449ZM196.268 80.2578C197.495 72.0087 203.181 53.8551 209.737 36.8016L209.271 36.6223C202.714 53.6769 197.009 71.8756 195.774 80.1843L196.268 80.2578ZM209.738 36.8009C212.841 28.6551 215.994 22.2423 218.37 17.8671C219.558 15.6796 220.552 14.0016 221.248 12.8712C221.596 12.306 221.87 11.8777 222.057 11.5911C222.15 11.4478 222.221 11.34 222.269 11.2681C222.293 11.2322 222.311 11.2053 222.323 11.1874C222.329 11.1785 222.334 11.1718 222.337 11.1675C222.338 11.1653 222.34 11.1637 222.34 11.1626C222.341 11.1621 222.341 11.1617 222.341 11.1615C222.341 11.1613 222.341 11.1613 222.341 11.1612C222.341 11.1612 222.341 11.1612 222.135 11.0201C221.929 10.879 221.929 10.8791 221.929 10.8792C221.929 10.8793 221.929 10.8794 221.928 10.8796C221.928 10.8799 221.928 10.8804 221.927 10.881C221.927 10.8823 221.925 10.8841 221.924 10.8865C221.921 10.8912 221.916 10.8983 221.909 10.9076C221.897 10.9262 221.878 10.9539 221.854 10.9907C221.805 11.0641 221.732 11.1737 221.638 11.3186C221.449 11.6085 221.173 12.0403 220.823 12.6091C220.122 13.7467 219.124 15.4326 217.931 17.6286C215.545 22.0206 212.383 28.4537 209.271 36.623L209.738 36.8009ZM222.382 11.0569C222.478 10.4111 222.376 9.87307 222.062 9.47119C221.75 9.0718 221.262 8.85044 220.676 8.76414L220.604 9.25849C221.113 9.33361 221.462 9.51507 221.669 9.77893C221.873 10.0403 221.971 10.4259 221.888 10.9833L222.382 11.0569ZM220.677 8.76425C219.572 8.59803 218.38 8.95932 217.147 9.74233C215.913 10.526 214.617 11.7455 213.288 13.3379C210.631 16.5233 207.818 21.2372 205.107 27.0601C199.682 38.7087 194.645 54.8377 192.073 72.1655L192.567 72.2389C195.132 54.9556 200.157 38.8732 205.56 27.2711C208.262 21.4686 211.053 16.7974 213.672 13.658C214.982 12.0879 216.241 10.9101 217.415 10.1641C218.591 9.41742 219.66 9.11659 220.603 9.25838L220.677 8.76425ZM192.412 72.4346L192.418 72.432L192.235 71.9672L192.228 71.9699L192.412 72.4346Z" fill="#A82682"/>
</svg>
