<svg width="75" height="64" viewBox="0 0 75 64" fill="none" xmlns="http://www.w3.org/2000/svg">
<path fill-rule="evenodd" clip-rule="evenodd" d="M65.7035 12.7451C62.8705 8.86184 57.7261 6.33045 50.6686 6.09056C43.2501 5.83839 34.3467 8.20934 25.9283 13.5852C17.5099 18.9611 11.6136 26.041 8.72166 32.8773C6.74714 37.5449 6.25793 41.815 7.00087 45.4079C7.82771 44.4564 8.80455 43.4364 9.95164 42.3815C15.0987 37.6479 23.5796 32.2968 37.0997 29.2027C49.6412 26.3327 57.1738 21.4579 61.5248 17.4565C63.5014 15.6386 64.8411 13.9829 65.7035 12.7451ZM9.89351 51.4248C10.7575 50.1966 12.0811 48.5746 14.0132 46.7978C18.3642 42.7964 25.8967 37.9216 38.4382 35.0515C51.9584 31.9575 60.4393 26.6063 65.5863 21.8728C66.5815 20.9576 67.4485 20.0687 68.2006 19.2279C68.6143 22.5519 68.0326 26.386 66.2779 30.5341C63.3859 37.3704 57.4897 44.4503 49.0712 49.8261C40.6528 55.202 31.7495 57.573 24.331 57.3208C17.744 57.0969 12.8236 54.8769 9.89351 51.4248ZM8.50788 53.7411C8.50653 53.7443 8.50659 53.7441 8.50813 53.7406L8.50788 53.7411ZM3.78729 53.234C11.9615 66.0345 33.6816 66.7728 52.3005 54.883C70.9194 42.9933 79.3865 22.9779 71.2123 10.1774C63.038 -2.62312 41.3179 -3.36141 22.6991 8.52835C4.08017 20.4181 -4.38692 40.4335 3.78729 53.234Z" fill="url(#paint0_linear_103:32)"/>
<defs>
<linearGradient id="paint0_linear_103:32" x1="32.0524" y1="-7.42588" x2="56.8659" y2="74.4008" gradientUnits="userSpaceOnUse">
<stop stop-color="#FAFF00"/>
<stop offset="0.375929" stop-color="#F7FC00"/>
<stop offset="1" stop-color="#FF5400"/>
</linearGradient>
</defs>
</svg>
