<svg width="75" height="64" viewBox="0 0 75 64" fill="none" xmlns="http://www.w3.org/2000/svg">
<path d="M8.50813 53.7406C8.5112 53.7335 8.52016 53.7133 8.53541 53.6805C8.56592 53.615 8.62159 53.4993 8.70573 53.3389C8.87403 53.0183 9.1561 52.5191 9.57845 51.8848C10.4225 50.6172 11.829 48.8065 14.0132 46.7978C18.3642 42.7964 25.8967 37.9216 38.4382 35.0515C51.9584 31.9575 60.4393 26.6063 65.5863 21.8728C67.9152 19.731 69.5423 17.7334 70.6371 16.1598C71.9355 20.7431 71.403 26.119 69.0408 31.7029C65.8837 39.1661 59.5498 46.6942 50.6859 52.3546C41.8219 58.015 32.3279 60.5944 24.229 60.3191C17.0293 60.0744 11.1826 57.6098 7.57928 53.336C8.5157 53.7223 8.51518 53.7236 8.51467 53.7248L8.51331 53.7281L8.51098 53.7337L8.50813 53.7406ZM8.50813 53.7406C8.50659 53.7441 8.50653 53.7443 8.50788 53.7411L8.50813 53.7406ZM50.7705 3.09229C58.4707 3.35403 64.6232 6.15495 68.1388 10.9926C67.0222 10.5321 67.0227 10.5308 67.0233 10.5294L67.0246 10.5262L67.0269 10.5206L67.0298 10.5137C67.0267 10.5207 67.0178 10.541 67.0025 10.5738C66.972 10.6393 66.9163 10.755 66.8322 10.9153C66.6639 11.236 66.3818 11.7352 65.9595 12.3694C65.1154 13.6371 63.7089 15.4478 61.5248 17.4565C57.1738 21.4579 49.6412 26.3327 37.0997 29.2027C23.5796 32.2968 15.0987 37.6479 9.95164 42.3815C7.48939 44.6459 5.81158 46.7492 4.71797 48.3606C2.9892 43.5467 3.40325 37.7493 5.95871 31.7085C9.11586 24.2453 15.4497 16.7172 24.3137 11.0568C33.1776 5.39641 42.6717 2.817 50.7705 3.09229Z" stroke="url(#paint0_linear_75:81)" stroke-width="6"/>
<defs>
<linearGradient id="paint0_linear_75:81" x1="32.0524" y1="-7.42588" x2="56.8659" y2="74.4008" gradientUnits="userSpaceOnUse">
<stop stop-color="#FAFF00"/>
<stop offset="0.375929" stop-color="#F7FC00"/>
<stop offset="1" stop-color="#FF5400"/>
</linearGradient>
</defs>
</svg>
