<svg width="74" height="64" viewBox="0 0 74 64" fill="none" xmlns="http://www.w3.org/2000/svg">
<path d="M25.3751 14.3333L25.3772 14.3333C27.1754 14.3321 28.9474 14.7641 30.5431 15.5929C32.1389 16.4216 33.5115 17.6227 34.5448 19.0944L36.9968 22.5871L39.4532 19.0974C41.4856 16.2103 44.8369 14.3333 48.6251 14.3333C54.8151 14.3333 59.8334 19.3517 59.8334 25.5417C59.8334 31.4935 56.2684 37.5539 51.1757 42.697C46.4975 47.4213 40.9625 50.9285 37.0001 52.4807C33.0377 50.9285 27.5026 47.4213 22.8245 42.697C17.7318 37.5539 14.1667 31.4935 14.1667 25.5417C14.1667 19.3517 19.1851 14.3333 25.3751 14.3333Z" stroke="url(#paint0_linear_75:86)" stroke-width="6"/>
<defs>
<linearGradient id="paint0_linear_75:86" x1="33.1789" y1="6.0785" x2="50.5549" y2="63.4323" gradientUnits="userSpaceOnUse">
<stop stop-color="#FAFF00"/>
<stop offset="0.375929" stop-color="#F7FC00"/>
<stop offset="1" stop-color="#FF5400"/>
</linearGradient>
</defs>
</svg>
