<svg width="74" height="64" viewBox="0 0 74 64" fill="none" xmlns="http://www.w3.org/2000/svg">
<g clip-path="url(#clip0_75:83)">
<path d="M25.4368 63C21.306 54.4014 23.507 49.4763 26.6806 44.834C30.1565 39.75 31.0555 34.7203 31.0555 34.7203C31.0555 34.7203 33.7913 38.2737 32.6946 43.8343C37.5229 38.4597 38.4374 29.892 37.705 26.6099C48.6209 34.2398 53.2864 50.7589 47.0012 63.0039C80.4463 44.0823 55.3208 15.7677 50.9459 12.5785C52.4029 15.7677 52.6819 21.1655 49.733 23.7889C44.7459 4.88278 32.4195 1.00778 32.4195 1.00778C33.8765 10.7573 27.134 21.4213 20.6318 29.3883C20.4031 25.5017 20.159 22.8163 18.1169 19.0963C17.6596 26.1604 12.2618 31.9187 10.797 38.9944C8.8169 48.5773 12.2811 55.5949 25.4329 63.0078L25.4368 63Z" fill="url(#paint0_linear_75:83)"/>
</g>
<defs>
<linearGradient id="paint0_linear_75:83" x1="33.2148" y1="-6.34037" x2="63.767" y2="68.7993" gradientUnits="userSpaceOnUse">
<stop stop-color="#FAFF00"/>
<stop offset="0.375929" stop-color="#F7FC00"/>
<stop offset="1" stop-color="#FF5400"/>
</linearGradient>
<clipPath id="clip0_75:83">
<rect width="62" height="62" fill="white" transform="translate(6 1)"/>
</clipPath>
</defs>
</svg>
