<svg width="82" height="105" viewBox="0 0 82 105" fill="none" xmlns="http://www.w3.org/2000/svg">
<path d="M11.9942 47.1721C8.21856 48.171 -0.423208 53.6006 0.787794 58.1482C1.12069 59.396 2.12448 59.8243 2.8803 59.6245C3.56138 59.4434 3.56987 58.8982 3.56987 58.8982C3.13507 59.0134 2.75801 58.7374 2.60345 58.1617C1.50794 54.0476 7.27421 49.8353 10.8783 48.3454C9.19347 51.7417 9.1663 62.1794 11.7378 71.8349C12.2626 73.8056 12.7857 74.6267 13.5806 74.4168C13.8659 74.3423 14.0443 74.1425 13.9594 73.8208C13.6061 72.4918 14.0698 46.5101 20.3999 44.8357C24.573 43.7318 23.3722 55.4241 16.3983 57.2695C16.0756 57.3542 16.3355 58.326 16.6565 58.2396C18.1698 57.8384 19.4929 57.1781 20.6071 56.3062C28.313 55.0414 27.3653 74.4523 15.4625 77.6031C6.85469 79.8803 7.22496 71.4539 9.98156 70.7242C10.3501 70.6345 10.2041 69.7863 9.80832 69.8912C5.49423 71.0341 5.7422 81.6631 16.4918 78.817C31.6301 74.8096 30.3852 55.6848 21.7366 55.2785C26.6027 50.4262 26.2392 42.137 20.3065 43.7064C14.9886 45.1134 13.3989 56.0691 12.9742 64.4396L12.6821 64.5175C12.4868 62.1878 12.3271 59.6957 12.2932 57.3948C12.1335 51.4657 12.7212 47.5937 12.7212 47.5937C12.6261 47.2347 12.3883 47.0654 11.9908 47.1704L11.9942 47.1721Z" fill="#A82682" stroke="#A82682" stroke-width="0.499685" stroke-miterlimit="22.9256" stroke-linecap="round" stroke-linejoin="round"/>
<path d="M33.179 46.014C33.179 46.014 32.9073 45.4146 32.1956 45.6025C27.5979 46.8198 27.8374 60.173 33.6954 58.6221C36.7713 57.8078 37.6358 51.1304 36.3586 46.1189C36.8205 46.1596 37.291 46.146 37.8175 46.0072C38.7636 45.7566 38.5173 44.8288 38.5173 44.8288C38.5173 44.8288 38.2608 45.1183 37.7343 45.2572C37.1534 45.4112 36.5658 45.3147 36.0104 45.1234C35.3921 43.769 34.3068 42.4484 33.602 42.6363C33.0992 42.7701 32.7612 43.5065 32.8529 43.8519C32.9922 44.3751 34.013 45.4552 35.3989 45.9056L35.4805 46.212C36.8256 51.259 35.7318 57.0798 33.7344 57.608C30.346 58.5053 29.6853 46.9401 33.1773 46.0156L33.179 46.014ZM46.8737 51.4724C47.2508 52.8861 47.6109 53.4905 48.2393 53.3246C48.4482 53.2687 48.5637 53.0689 48.5229 52.9165C48.3837 52.3934 49.5522 45.2724 51.339 42.7023C51.5241 42.4264 51.7806 42.357 51.7959 42.6109C51.7942 43.9264 51.9572 46.5405 52.8438 49.869C53.6302 52.82 54.9618 54.7874 56.3477 54.42C57.1358 54.2117 57.3906 52.947 57.3906 52.947C57.3906 52.947 57.4245 52.6575 57.1613 52.7269C56.898 52.7963 56.8454 53.3415 56.3189 53.4803C55.794 53.6192 55.293 52.9978 54.7427 50.9306C53.6013 46.6421 53.7576 41.7525 53.7576 41.7525C53.5487 40.967 52.9933 40.6639 52.178 40.8806C50.1687 41.4122 48.8711 46.4643 48.2342 49.8792L48.027 49.9334C47.6312 46.229 47.8894 42.2418 47.8894 42.2418C47.6924 41.5053 47.1387 41.121 46.3013 41.3411C43.8063 42.0014 42.6972 47.6748 42.2149 51.6688L41.9788 51.7314C41.437 47.5868 41.6374 43.4761 41.6374 43.4761C41.5457 43.1324 41.3045 42.9732 40.992 43.0562C39.4158 43.4727 39.6757 49.0056 41.0072 54.0035C41.3843 55.4172 41.7444 56.0216 42.3728 55.8557C42.5868 55.7998 42.6972 55.6 42.6548 55.4426C42.5019 54.8703 43.4123 45.9191 45.3842 43.0731C45.605 42.7582 45.9022 42.7091 45.9022 43.0172C45.9175 44.304 45.9294 47.939 46.8703 51.469L46.8737 51.4724Z" fill="#CB5499" stroke="#CB5499" stroke-width="0.34991" stroke-miterlimit="22.9256" stroke-linecap="round" stroke-linejoin="round"/>
<path d="M60.7369 68.1607C61.1343 69.6556 61.559 70.3024 62.0362 70.1771C62.2434 70.1212 62.3946 69.9418 62.3318 69.7014C60.956 64.5341 61.6982 57.9295 61.6982 57.9295C61.5946 57.5367 61.3433 57.3217 60.922 57.4335C59.1862 57.8923 59.4308 63.2491 60.7386 68.159L60.7369 68.1607ZM60.8932 51.5247C59.5242 51.887 60.0304 55.0361 60.9492 54.7923C60.9492 54.7923 61.7594 52.6675 61.5793 51.9852C61.474 51.5924 61.26 51.4265 60.8949 51.5247H60.8932ZM74.8936 65.9851C73.3327 60.1254 74.3059 55.0242 74.3059 55.0242C74.2091 54.6585 73.9594 54.474 73.6486 54.5553C72.9369 54.7432 72.5446 55.6879 72.3102 56.9239C71.9247 58.732 69.9884 67.0602 68.5651 67.436C66.7257 67.922 66.087 56.0248 69.613 55.092C70.4504 54.8702 70.9718 55.6845 70.9718 55.6845C70.9718 55.6845 71.1315 55.952 71.5748 55.8352C71.9365 55.7404 71.8992 55.2714 71.8992 55.2714C71.8992 55.2714 71.0992 53.9407 69.6046 54.3369C63.8247 55.8674 63.981 69.6556 68.5515 68.4468C69.8661 68.0997 71.1807 64.5917 72.0588 61.4443L72.3221 61.3749C72.4427 62.5753 72.6652 63.8315 72.959 64.9337C73.7131 67.7662 75.0634 69.8842 76.6073 69.4762C77.6587 69.1985 77.7555 67.0348 77.7555 67.0348C77.7555 67.0348 77.7606 66.7233 77.4973 66.7927C77.2069 66.8689 77.2018 67.1804 77.2018 67.1804C77.2018 67.1804 77.1865 68.3757 76.4477 68.5721C75.9228 68.7109 75.4541 68.0997 74.8919 65.9868L74.8936 65.9851Z" fill="#CB5499" stroke="#CB5499" stroke-width="0.34991" stroke-miterlimit="22.9256"/>
<path d="M46.4136 90.5126C37.8363 92.783 38.424 84.2991 41.1874 83.566C41.5492 83.478 41.4405 82.6196 41.043 82.7246C36.7289 83.8657 36.6185 94.5912 47.3596 91.7486C64.2593 87.2755 61.2632 53.929 43.1423 58.7255C31.3295 61.8525 30.9168 73.3112 34.4004 72.3901C35.0814 72.209 35.1086 71.4352 35.1086 71.4352C33.9265 71.7552 33.2233 62.3418 43.3512 59.6617C59.456 55.3986 59.6038 87.0215 46.4119 90.5126H46.4136ZM43.1967 84.6089C43.7215 86.5796 44.2446 87.4008 45.031 87.1925C45.3164 87.118 45.4947 86.9183 45.4098 86.5966C44.6845 83.8708 44.017 77.4862 43.7657 71.3337C43.5075 65.4554 44.2378 61.6968 44.2378 61.6968C44.1325 61.3006 43.8676 61.1787 43.5075 61.2752C40.8103 61.9897 40.1598 73.2163 43.195 84.6106L43.1967 84.6089Z" fill="#A82682" stroke="#A82682" stroke-width="0.499685" stroke-miterlimit="22.9256" stroke-linecap="round" stroke-linejoin="round"/>
<path d="M65.0948 44.4052C64.3747 44.3494 64.3696 43.8668 64.2728 43.5062C61.9561 34.7531 55.8688 30.0278 47.3799 28.0469C39.7606 26.2709 32.2806 26.9414 25.1301 30.1582C19.571 32.6571 15.4709 36.6578 13.2493 42.4227C13.0557 42.9238 13.0285 43.579 12.1708 43.8313C11.646 42.9374 12.1589 42.1467 12.4731 41.395C14.9495 35.4642 19.3128 31.3281 25.1827 28.9273C33.9892 25.3262 43.0131 24.9029 51.9657 28.3381C58.3621 30.7931 62.9378 35.2153 64.964 41.9351C65.2086 42.7444 65.5993 43.5739 65.0948 44.4052Z" fill="#FF5400" stroke="#FF5400" stroke-width="0.200135" stroke-miterlimit="22.9256"/>
<path d="M40.0137 22.2551C39.0066 18.6303 39.1271 14.9513 38.9148 11.3112C38.7433 8.37377 38.8265 5.41939 38.8452 2.47347C38.8503 1.62186 38.6142 0.397778 39.8116 0.267412C41.043 0.133661 41.3572 1.35774 41.5542 2.28892C42.4629 6.5859 42.2302 10.9201 41.753 15.2374C41.4914 17.6179 41.3895 20.0559 40.0137 22.2535V22.2551ZM40.221 3.3183C40.221 6.75182 40.221 10.187 40.221 13.6206C41.1092 10.182 41.0532 6.74844 40.221 3.3183Z" fill="#FF5400" stroke="#FF5400" stroke-width="0.200135" stroke-miterlimit="22.9256"/>
<path d="M32.138 23.7078C30.8828 23.3708 30.8845 22.6428 30.7095 22.0401C29.0196 16.2126 27.6455 10.314 26.657 4.32733C26.494 3.3352 26.2103 2.18392 27.5045 1.88087C28.6119 1.62183 28.9584 2.72232 29.3202 3.53498C32.1685 9.92458 32.2314 16.6765 32.138 23.7061V23.7078ZM28.0379 4.18512C28.5168 8.1384 29.1656 12.0511 30.5856 15.791C30.6178 11.7226 30.0251 7.79471 28.0379 4.18512Z" fill="#FF5400" stroke="#FF5400" stroke-width="0.200135" stroke-miterlimit="22.9256"/>
<path d="M55.2169 25.8105C55.0097 24.7405 55.6059 23.8178 55.9405 22.8595C57.6508 17.9564 59.9692 13.353 62.8957 9.05773C63.3101 8.44992 63.7568 7.85396 64.2561 7.31388C64.6977 6.83644 65.2803 6.23709 65.9461 6.61465C66.7512 7.07177 66.4964 8.00972 66.1618 8.58875C62.7802 14.4484 59.3357 20.2725 55.9099 26.1051C55.6789 26.0069 55.4479 25.907 55.2186 25.8088L55.2169 25.8105Z" fill="#FF5400" stroke="#FF5400" stroke-width="0.200135" stroke-miterlimit="22.9256"/>
<path d="M61.6743 31.0591C61.5028 30.9779 61.2191 30.9355 61.1172 30.7764C60.7792 30.2465 61.2021 29.8554 61.4671 29.4643C63.3575 26.6741 65.4568 24.0414 67.8091 21.6288C69.9254 19.4583 71.967 17.1778 74.6879 15.7082C75.2297 15.4153 75.9431 14.9023 76.4985 15.439C77.1609 16.079 76.6836 16.8324 76.2284 17.4165C72.2608 22.4973 67.5866 26.8451 62.3707 30.6291C62.1719 30.773 61.9528 30.8881 61.6743 31.0591ZM74.8476 17.2929C71.8175 18.6744 66.0903 24.5172 65.129 27.1583C68.6686 24.1261 71.916 21.0921 74.8476 17.2929Z" fill="#FF5400" stroke="#FF5400" stroke-width="0.200135" stroke-miterlimit="22.9256"/>
<path d="M14.6746 5.66846C20.4766 11.6602 21.5194 19.2637 24.9554 26.2713C21.0031 24.2345 13.9647 10.1821 14.6746 5.66846ZM16.0572 9.22896C16.9778 12.4068 18.3042 15.4018 20.1827 18.1548C19.2588 14.9803 18.1955 11.865 16.0572 9.22896Z" fill="#FF5400" stroke="#FF5400" stroke-width="0.200135" stroke-miterlimit="22.9256"/>
<path d="M48.9665 23.2626C48.5283 20.2879 49.1414 17.4385 49.5864 14.5874C50.0909 11.3553 50.6989 8.13684 51.3155 4.92342C51.4683 4.13276 51.7741 3.35564 52.1188 2.62424C52.3651 2.10278 52.8441 1.65751 53.4912 1.79465C54.2555 1.95549 54.1638 2.6598 54.1128 3.19819C53.9277 5.15198 53.7799 7.11592 53.442 9.04601C52.5808 13.9576 51.1286 18.7049 48.9665 23.2643V23.2626ZM50.7601 15.7014C52.0815 12.3119 52.7354 8.75142 52.7303 5.07748C51.5584 8.50592 51.0862 12.0647 50.7601 15.7014Z" fill="#FF5400" stroke="#FF5400" stroke-width="0.200135" stroke-miterlimit="22.9256"/>
<path d="M18.1391 30.6948C17.2117 30.9081 16.8415 30.2529 16.3846 29.8398C12.3643 26.2167 8.5428 22.392 4.91659 18.3761C4.21683 17.6007 3.16548 16.6678 4.32723 15.696C5.29875 14.8816 6.15647 15.8585 6.79849 16.5984C10.4451 20.809 14.0696 25.0366 17.6856 29.2726C17.9811 29.6197 18.4109 29.9719 18.1408 30.6948H18.1391Z" fill="#FF5400" stroke="#FF5400" stroke-width="0.200135" stroke-miterlimit="22.9256"/>
<path d="M66.3635 36.2382C65.4871 36.3787 65.161 36.3432 65.0285 35.969C64.8944 35.5915 65.1576 35.3612 65.4311 35.1699C70.0169 31.9514 74.7522 29.0055 80.1414 27.287C80.6221 27.1329 81.3389 26.8925 81.6276 27.6443C81.828 28.164 81.5002 28.6465 81.0943 28.9208C76.3607 32.1072 70.9817 33.978 66.3635 36.2382Z" fill="#FF5400" stroke="#FF5400" stroke-width="0.200135" stroke-miterlimit="22.9256"/>
<path d="M12.4411 36.1282C12.1982 37.0137 11.6784 36.8088 11.2623 36.5633C7.95372 34.6095 4.64342 32.6574 1.37389 30.6376C0.682617 30.211 -0.0409271 29.356 0.390482 28.6009C0.874543 27.7526 1.84606 28.2995 2.59508 28.5907C6.08202 29.9418 9.24795 31.7516 11.5239 34.8262C11.8568 35.2749 12.1659 35.7388 12.4411 36.1299V36.1282Z" fill="#FF5400" stroke="#FF5400" stroke-width="0.200135" stroke-miterlimit="22.9256"/>
<path d="M68.0284 42.5211C71.7667 39.6683 76.0621 38.2462 80.524 37.232C80.9197 37.1423 81.3647 37.1965 81.594 37.6282C81.859 38.1259 81.7571 38.661 81.3376 38.9555C80.5393 39.5193 79.7087 40.0814 78.8103 40.4488C75.3845 41.8524 71.709 42.1114 68.0267 42.5194L68.0284 42.5211Z" fill="#FF5400" stroke="#FF5400" stroke-width="0.200135" stroke-miterlimit="22.9256"/>
<path d="M4.94236 97.1272C6.49136 100.821 8.92185 102.545 12.6534 102.494C16.6057 102.442 19.1381 100.295 20.6056 95.871C21.3019 93.775 22.7473 94.3387 23.2501 95.9996C24.5477 100.293 27.1582 102.44 31.3059 102.457C35.287 102.474 38.0368 100.305 39.326 96.3061C39.9799 94.271 41.4389 93.7902 42.1132 96.1977C43.2172 100.148 46.0196 102.428 49.9872 102.469C54.0211 102.509 56.8711 100.324 58.0906 96.4127C58.843 93.9984 60.2527 93.9934 60.9355 96.4246C61.9715 100.099 64.8352 102.394 68.6873 102.469C72.7194 102.547 75.69 100.325 76.8585 96.4906C77.1031 95.6847 77.6568 94.398 78.2139 94.2253C79.4419 93.863 80.1349 95.2682 79.7833 96.6278C79.7969 97.415 78.7642 100.004 77.5006 101.169C71.7173 106.383 66.8274 106.359 59.4459 100.567C52.681 106.351 48.7592 106.356 40.4538 100.542C38.1116 103.19 35.197 104.883 31.277 104.682C27.5624 104.958 23.8241 102.472 21.8335 100.921C16.7959 105.628 11.5052 106.265 4.94236 101.974C1.97006 99.423 2.93308 94.8128 4.94236 97.1238V97.1272Z" fill="#FF5400"/>
</svg>
