<svg width="103" height="132" viewBox="0 0 103 132" fill="none" xmlns="http://www.w3.org/2000/svg">
<path d="M15.0659 59.3018C10.3233 60.5575 -0.531571 67.3834 0.989566 73.1003C1.40772 74.6689 2.66858 75.2074 3.61795 74.9563C4.47346 74.7285 4.48413 74.0432 4.48413 74.0432C3.93797 74.1879 3.46435 73.841 3.2702 73.1173C1.89414 67.9453 9.13714 62.6498 13.6643 60.7768C11.5479 65.0464 11.5138 78.168 14.7438 90.3064C15.403 92.7839 16.0601 93.8161 17.0586 93.5522C17.417 93.4586 17.641 93.2074 17.5343 92.803C17.0906 91.1322 17.673 58.4696 25.6243 56.3646C30.8661 54.9768 29.3578 69.6757 20.5979 71.9956C20.1926 72.1021 20.519 73.3238 20.9222 73.2152C22.8231 72.7108 24.485 71.8807 25.8846 70.7846C35.564 69.1946 34.3735 93.5969 19.4224 97.5579C8.61018 100.421 9.07527 89.8275 12.5378 88.9101C13.0008 88.7973 12.8173 87.731 12.3202 87.863C6.9013 89.2996 7.21278 102.662 20.7153 99.084C39.7305 94.046 38.1667 70.0034 27.3033 69.4926C33.4156 63.3926 32.959 52.9719 25.507 54.9449C18.8272 56.7136 16.8303 70.4866 16.2969 81.0095L15.93 81.1074C15.6846 78.1787 15.4841 75.0457 15.4414 72.1531C15.2409 64.6994 15.9791 59.8317 15.9791 59.8317C15.8596 59.3805 15.5609 59.1677 15.0617 59.2996L15.0659 59.3018Z" fill="#A82682" stroke="#A82682" stroke-width="0.499685" stroke-miterlimit="22.9256" stroke-linecap="round" stroke-linejoin="round"/>
<path d="M41.6761 57.846C41.6761 57.846 41.3347 57.0925 40.4408 57.3288C34.6656 58.8591 34.9665 75.6459 42.3247 73.6963C46.1883 72.6725 47.2742 64.278 45.6699 57.9779C46.2502 58.029 46.8411 58.012 47.5025 57.8375C48.6908 57.5225 48.3815 56.3561 48.3815 56.3561C48.3815 56.3561 48.0593 56.72 47.398 56.8946C46.6683 57.0883 45.9302 56.9669 45.2325 56.7264C44.456 55.0237 43.0927 53.3635 42.2073 53.5998C41.5758 53.7679 41.1513 54.6938 41.2665 55.128C41.4414 55.7857 42.7236 57.1436 44.4645 57.7098L44.5669 58.095C46.2566 64.4398 44.8826 71.7573 42.3737 72.4214C38.1175 73.5494 37.2876 59.0102 41.674 57.8481L41.6761 57.846ZM58.8779 64.708C59.3516 66.4852 59.8038 67.245 60.5932 67.0365C60.8556 66.9662 61.0007 66.7151 60.9495 66.5235C60.7746 65.8658 62.2424 56.9137 64.4867 53.6828C64.7193 53.3359 65.0414 53.2486 65.0606 53.5679C65.0585 55.2216 65.2633 58.5079 66.3769 62.6924C67.3647 66.4022 69.0373 68.8754 70.7782 68.4135C71.7681 68.1518 72.0881 66.5618 72.0881 66.5618C72.0881 66.5618 72.1308 66.1979 71.8001 66.2851C71.4694 66.3724 71.4033 67.0578 70.7419 67.2323C70.0827 67.4068 69.4534 66.6257 68.7621 64.0269C67.3285 58.6356 67.5247 52.4888 67.5247 52.4888C67.2623 51.5012 66.5647 51.1202 65.5406 51.3926C63.0168 52.0609 61.3869 58.4121 60.5868 62.7051L60.3265 62.7733C59.8294 58.1163 60.1537 53.1039 60.1537 53.1039C59.9063 52.178 59.2108 51.6949 58.159 51.9716C55.025 52.8016 53.6318 59.9339 53.0259 64.9549L52.7294 65.0336C52.0488 59.8233 52.3006 54.6555 52.3006 54.6555C52.1854 54.2234 51.8824 54.0233 51.4899 54.1276C49.51 54.6512 49.8365 61.6069 51.5091 67.89C51.9827 69.6672 52.435 70.427 53.2243 70.2184C53.4932 70.1482 53.6318 69.8971 53.5785 69.6991C53.3865 68.9797 54.53 57.7268 57.0069 54.1489C57.2843 53.753 57.6576 53.6913 57.6576 54.0787C57.6768 55.6963 57.6918 60.266 58.8737 64.7037L58.8779 64.708Z" fill="#CB5499" stroke="#CB5499" stroke-width="0.34991" stroke-miterlimit="22.9256" stroke-linecap="round" stroke-linejoin="round"/>
<path d="M76.2914 85.6878C76.7907 87.5672 77.324 88.3802 77.9235 88.2227C78.1838 88.1525 78.3737 87.9269 78.2947 87.6246C76.5667 81.1287 77.499 72.8258 77.499 72.8258C77.3688 72.332 77.0531 72.0617 76.524 72.2021C74.3436 72.7789 74.6508 79.5132 76.2936 85.6856L76.2914 85.6878ZM76.4877 64.774C74.7682 65.2294 75.4039 69.1883 76.5581 68.8818C76.5581 68.8818 77.5758 66.2106 77.3496 65.3529C77.2174 64.8591 76.9485 64.6505 76.4899 64.774H76.4877ZM94.0736 82.9527C92.113 75.5863 93.3354 69.1734 93.3354 69.1734C93.2138 68.7137 92.9002 68.4817 92.5098 68.5838C91.6159 68.8201 91.123 70.0077 90.8286 71.5615C90.3443 73.8346 87.9122 84.3043 86.1244 84.7768C83.8139 85.3877 83.0117 70.4313 87.4407 69.2585C88.4925 68.9797 89.1475 70.0035 89.1475 70.0035C89.1475 70.0035 89.348 70.3398 89.9049 70.1929C90.3593 70.0737 90.3123 69.4841 90.3123 69.4841C90.3123 69.4841 89.3075 67.8112 87.4301 68.3093C80.17 70.2333 80.3663 87.5672 86.1074 86.0475C87.7586 85.6111 89.4099 81.2011 90.5129 77.2443L90.8436 77.1571C90.995 78.6661 91.2745 80.2454 91.6436 81.631C92.5909 85.1918 94.2869 87.8545 96.2262 87.3415C97.5468 86.9925 97.6684 84.2724 97.6684 84.2724C97.6684 84.2724 97.6748 83.8807 97.3441 83.968C96.9793 84.0638 96.9729 84.4554 96.9729 84.4554C96.9729 84.4554 96.9537 85.9581 96.0257 86.205C95.3664 86.3795 94.7776 85.6111 94.0715 82.9549L94.0736 82.9527Z" fill="#CB5499" stroke="#CB5499" stroke-width="0.34991" stroke-miterlimit="22.9256"/>
<path d="M58.2999 113.787C47.5261 116.641 48.2643 105.976 51.7354 105.054C52.1898 104.944 52.0533 103.864 51.554 103.996C46.1351 105.431 45.9964 118.915 59.4883 115.341C80.7159 109.718 76.9525 67.7964 54.191 73.8262C39.3529 77.7573 38.8345 92.1625 43.2102 91.0046C44.0657 90.7769 44.0998 89.8042 44.0998 89.8042C42.615 90.2065 41.7317 78.3725 54.4534 75.0032C74.6826 69.6438 74.8682 109.398 58.2978 113.787H58.2999ZM54.2592 106.365C54.9185 108.843 55.5756 109.875 56.5633 109.613C56.9218 109.52 57.1458 109.269 57.0391 108.864C56.1281 105.437 55.2897 97.4111 54.9739 89.6765C54.6496 82.2866 55.567 77.5615 55.567 77.5615C55.4347 77.0635 55.1019 76.9102 54.6496 77.0316C51.2618 77.9298 50.4447 92.0433 54.2571 106.368L54.2592 106.365Z" fill="#A82682" stroke="#A82682" stroke-width="0.499685" stroke-miterlimit="22.9256" stroke-linecap="round" stroke-linejoin="round"/>
<path d="M81.7655 55.8241C80.861 55.7538 80.8546 55.1472 80.733 54.6939C77.823 43.69 70.1767 37.7496 59.5138 35.2593C49.9433 33.0266 40.5476 33.8695 31.5659 37.9135C24.5832 41.055 19.4331 46.0844 16.6425 53.3317C16.3993 53.9617 16.3652 54.7854 15.2878 55.1025C14.6286 53.9787 15.2729 52.9848 15.6676 52.0398C18.7781 44.5839 24.2589 39.3842 31.632 36.3661C42.6939 31.839 54.0288 31.3069 65.2741 35.6254C73.3086 38.7116 79.0561 44.271 81.6013 52.7187C81.9085 53.7361 82.3992 54.779 81.7655 55.8241Z" fill="#FF5400" stroke="#FF5400" stroke-width="0.200135" stroke-miterlimit="22.9256"/>
<path d="M50.2612 27.978C48.9961 23.421 49.1476 18.796 48.8809 14.2199C48.6654 10.5271 48.77 6.813 48.7934 3.10955C48.7998 2.03896 48.5033 0.500117 50.0073 0.336229C51.5541 0.168085 51.9488 1.70693 52.1962 2.87756C53.3376 8.27947 53.0453 13.7282 52.4458 19.1557C52.1173 22.1482 51.9893 25.2131 50.2612 27.9758V27.978ZM50.5215 4.17163C50.5215 8.48806 50.5215 12.8066 50.5215 17.123C51.6373 12.8002 51.5669 8.4838 50.5215 4.17163Z" fill="#FF5400" stroke="#FF5400" stroke-width="0.200135" stroke-miterlimit="22.9256"/>
<path d="M40.3684 29.8042C38.7918 29.3806 38.7939 28.4654 38.5742 27.7077C36.4514 20.3817 34.7255 12.9663 33.4838 5.44022C33.279 4.19297 32.9227 2.74565 34.5484 2.36466C35.9394 2.03902 36.3746 3.42249 36.8291 4.44412C40.4068 12.4768 40.4858 20.9649 40.3684 29.802V29.8042ZM35.2183 5.26144C35.8199 10.2313 36.6349 15.15 38.4185 19.8517C38.459 14.7371 37.7144 9.79921 35.2183 5.26144Z" fill="#FF5400" stroke="#FF5400" stroke-width="0.200135" stroke-miterlimit="22.9256"/>
<path d="M69.3579 32.4476C69.0976 31.1025 69.8464 29.9425 70.2667 28.7378C72.4151 22.5739 75.3272 16.7868 79.0031 11.387C79.5237 10.6229 80.0848 9.87367 80.712 9.1947C81.2667 8.59449 81.9984 7.84103 82.8347 8.31567C83.846 8.89034 83.526 10.0695 83.1057 10.7974C78.858 18.1638 74.5314 25.4856 70.2283 32.818C69.9382 32.6945 69.648 32.5689 69.36 32.4455L69.3579 32.4476Z" fill="#FF5400" stroke="#FF5400" stroke-width="0.200135" stroke-miterlimit="22.9256"/>
<path d="M77.469 39.0457C77.2535 38.9435 76.8972 38.8903 76.7692 38.6902C76.3447 38.024 76.8759 37.5324 77.2087 37.0407C79.5832 33.5331 82.2201 30.2234 85.1749 27.1904C87.8332 24.4618 90.3976 21.5948 93.8153 19.7474C94.4959 19.3791 95.3919 18.7342 96.0896 19.4089C96.9216 20.2135 96.3221 21.1606 95.7504 21.8949C90.7667 28.2823 84.8955 33.7481 78.3437 38.5051C78.0941 38.686 77.8189 38.8307 77.469 39.0457ZM94.0159 21.7395C90.2098 23.4763 83.0159 30.8215 81.8084 34.1418C86.2545 30.3298 90.3336 26.5157 94.0159 21.7395Z" fill="#FF5400" stroke="#FF5400" stroke-width="0.200135" stroke-miterlimit="22.9256"/>
<path d="M18.4328 7.12585C25.7206 14.6583 27.0305 24.217 31.3464 33.0265C26.3819 30.466 17.541 12.8002 18.4328 7.12585ZM20.1694 11.6019C21.3257 15.5969 22.9919 19.3621 25.3515 22.8229C24.1909 18.8321 22.8554 14.9159 20.1694 11.6019Z" fill="#FF5400" stroke="#FF5400" stroke-width="0.200135" stroke-miterlimit="22.9256"/>
<path d="M61.5067 29.2443C60.9563 25.5047 61.7264 21.9225 62.2854 18.3383C62.919 14.2752 63.6828 10.229 64.4572 6.18931C64.6492 5.19534 65.0332 4.2184 65.4663 3.29892C65.7757 2.64337 66.3773 2.0836 67.1902 2.256C68.1502 2.4582 68.035 3.34362 67.971 4.02045C67.7384 6.47664 67.5528 8.94561 67.1283 11.372C66.0466 17.5465 64.2225 23.5146 61.5067 29.2464V29.2443ZM63.7596 19.7388C65.4194 15.4777 66.2408 11.0017 66.2344 6.383C64.7623 10.693 64.1692 15.167 63.7596 19.7388Z" fill="#FF5400" stroke="#FF5400" stroke-width="0.200135" stroke-miterlimit="22.9256"/>
<path d="M22.7846 38.5881C21.6197 38.8562 21.1546 38.0325 20.5807 37.5132C15.5309 32.9584 10.7307 28.1503 6.17579 23.1017C5.29681 22.1269 3.97622 20.9541 5.43549 19.7324C6.65581 18.7087 7.73319 19.9368 8.53963 20.8669C13.1201 26.1602 17.6728 31.4749 22.2149 36.8002C22.5861 37.2365 23.1259 37.6792 22.7867 38.5881H22.7846Z" fill="#FF5400" stroke="#FF5400" stroke-width="0.200135" stroke-miterlimit="22.9256"/>
<path d="M83.3592 45.5565C82.2584 45.7332 81.8487 45.6885 81.6823 45.2181C81.5138 44.7435 81.8445 44.454 82.1879 44.2135C87.9482 40.1674 93.8962 36.4639 100.666 34.3036C101.269 34.1099 102.17 33.8077 102.532 34.7527C102.784 35.4061 102.372 36.0127 101.862 36.3575C95.9166 40.3632 89.16 42.7151 83.3592 45.5565Z" fill="#FF5400" stroke="#FF5400" stroke-width="0.200135" stroke-miterlimit="22.9256"/>
<path d="M15.6272 45.4181C15.3222 46.5313 14.6693 46.2737 14.1466 45.9651C9.99071 43.5089 5.83265 41.0549 1.7258 38.5157C0.857493 37.9793 -0.0513489 36.9045 0.490543 35.9552C1.09857 34.8888 2.31889 35.5763 3.25974 35.9424C7.63967 37.6409 11.6164 39.9162 14.4752 43.7814C14.8933 44.3454 15.2816 44.9286 15.6272 45.4202V45.4181Z" fill="#FF5400" stroke="#FF5400" stroke-width="0.200135" stroke-miterlimit="22.9256"/>
<path d="M85.4504 53.4551C90.1461 49.8688 95.5415 48.0809 101.146 46.806C101.643 46.6932 102.202 46.7613 102.49 47.304C102.823 47.9298 102.695 48.6023 102.168 48.9727C101.165 49.6815 100.122 50.3881 98.9934 50.85C94.6903 52.6144 90.0735 52.9401 85.4482 53.453L85.4504 53.4551Z" fill="#FF5400" stroke="#FF5400" stroke-width="0.200135" stroke-miterlimit="22.9256"/>
<path d="M6.20825 122.103C8.15394 126.747 11.2069 128.914 15.894 128.85C20.8585 128.784 24.0395 126.085 25.8827 120.524C26.7575 117.889 28.573 118.597 29.2045 120.685C30.8344 126.083 34.1135 128.782 39.3234 128.803C44.3241 128.824 47.7782 126.098 49.3974 121.071C50.2188 118.512 52.0514 117.908 52.8984 120.934C54.2851 125.9 57.8053 128.767 62.789 128.818C67.8559 128.869 71.4358 126.121 72.9676 121.205C73.9127 118.169 75.6834 118.163 76.5411 121.22C77.8425 125.838 81.4394 128.724 86.2781 128.818C91.3428 128.916 95.0742 126.123 96.542 121.303C96.8492 120.289 97.5447 118.672 98.2445 118.455C99.7869 117.999 100.657 119.766 100.216 121.475C100.233 122.465 98.9357 125.719 97.3484 127.183C90.0841 133.739 83.9419 133.709 74.6701 126.428C66.1726 133.698 61.2465 133.705 50.814 126.396C47.872 129.725 44.2111 131.853 39.2871 131.6C34.6213 131.947 29.9256 128.822 27.4252 126.873C21.0975 132.79 14.4518 133.59 6.20825 128.196C2.47474 124.989 3.6844 119.193 6.20825 122.099V122.103Z" fill="#FF5400"/>
</svg>
